<svg width="46" height="45" viewBox="0 0 46 45" fill="none" xmlns="http://www.w3.org/2000/svg">
<path d="M13.5947 21.4341C13.4333 21.4653 13.2837 21.5388 13.1617 21.6465C13.0397 21.7543 12.9501 21.8924 12.9022 22.046C12.8544 22.1996 12.8503 22.3631 12.8902 22.5188C12.9302 22.6746 13.0128 22.8168 13.1291 22.9304C13.2454 23.0439 13.3912 23.1245 13.5508 23.1634C13.7104 23.2024 13.8779 23.1984 14.0353 23.1517C14.1928 23.1051 14.3343 23.0176 14.4447 22.8986C14.5552 22.7795 14.6304 22.6335 14.6624 22.476C14.6896 22.3334 14.6808 22.1864 14.6367 22.0479C14.5927 21.9093 14.5148 21.7833 14.4097 21.6807C14.3045 21.5782 14.1754 21.5021 14.0334 21.4591C13.8914 21.4162 13.7409 21.4076 13.5947 21.4341ZM13.5947 21.4341C13.4333 21.4653 13.2837 21.5388 13.1617 21.6465C13.0397 21.7543 12.9501 21.8924 12.9022 22.046C12.8544 22.1996 12.8503 22.3631 12.8902 22.5188C12.9302 22.6746 13.0128 22.8168 13.1291 22.9304C13.2454 23.0439 13.3912 23.1245 13.5508 23.1634C13.7104 23.2024 13.8779 23.1984 14.0353 23.1517C14.1928 23.1051 14.3343 23.0176 14.4447 22.8986C14.5552 22.7795 14.6304 22.6335 14.6624 22.476C14.6896 22.3334 14.6808 22.1864 14.6367 22.0479C14.5927 21.9093 14.5148 21.7833 14.4097 21.6807C14.3045 21.5782 14.1754 21.5021 14.0334 21.4591C13.8914 21.4162 13.7409 21.4076 13.5947 21.4341ZM37.5205 39.9548C36.8667 39.6134 36.4446 39.0192 36.2633 38.1846C35.9959 36.9426 37.2925 35.4146 38.9353 33.4819C43.2719 28.3725 50.5351 19.8221 41.0148 3.03854L40.7785 3.14219C41.3023 4.65497 41.7666 6.73338 41.0038 8.03171C40.6513 8.63575 40.0506 9.0307 39.2228 9.20047C37.9509 9.4605 36.3842 8.19612 34.4045 6.59487C29.067 2.28259 20.1345 -4.9391 2.41427 5.00435L2.52324 5.23221C4.94704 4.35474 8.04479 3.75785 9.03739 5.88718L9.08134 5.981H9.10973C9.44487 6.31966 9.67287 6.77269 9.78916 7.32669C10.0593 8.56873 8.76268 10.0967 7.11904 12.0295C2.59649 17.3559 -5.49629 25.7696 5.55505 43.7139L5.78123 43.5924C5.16955 42.4165 3.77955 38.9102 4.85273 36.7246C5.19519 36.0294 5.82243 35.5844 6.71888 35.4021C7.99443 35.1385 9.55749 36.4065 11.5381 38.0077C14.9023 40.7295 19.6959 44.6039 27.2237 44.6039C31.64 44.6039 37.0032 43.2636 43.5695 39.5759L43.4578 39.348C41.6026 40.0718 39.069 40.7643 37.5205 39.9548ZM34.6407 31.1729C34.6402 31.3363 34.5733 31.4928 34.4547 31.6081C34.3361 31.7233 34.1754 31.7879 34.008 31.7877H11.6819C11.5149 31.7875 11.3548 31.7226 11.2367 31.6074C11.1186 31.4921 11.0521 31.3359 11.0519 31.1729V27.0921C11.0516 27.0112 11.0678 26.9311 11.0993 26.8563C11.1309 26.7815 11.1772 26.7135 11.2358 26.6562C11.2943 26.5989 11.3638 26.5535 11.4404 26.5225C11.5169 26.4915 11.599 26.4755 11.6819 26.4755H34.008C34.091 26.4754 34.1733 26.4913 34.2501 26.5222C34.3268 26.5531 34.3966 26.5985 34.4553 26.6558C34.5141 26.7131 34.5607 26.7811 34.5925 26.8559C34.6244 26.9308 34.6407 27.011 34.6407 27.0921V31.1729ZM34.6407 24.3426C34.6406 24.4235 34.6241 24.5036 34.5923 24.5784C34.5604 24.6531 34.5137 24.7209 34.455 24.778C34.3962 24.8351 34.3265 24.8803 34.2498 24.9111C34.1731 24.9419 34.0909 24.9576 34.008 24.9574H11.6819C11.5148 24.9574 11.3545 24.8926 11.2364 24.7773C11.1183 24.662 11.0519 24.5057 11.0519 24.3426V20.2627C11.0516 20.1817 11.0678 20.1016 11.0993 20.0267C11.1308 19.9519 11.1772 19.8838 11.2357 19.8265C11.2942 19.7691 11.3637 19.7236 11.4403 19.6925C11.5169 19.6614 11.5989 19.6453 11.6819 19.6452H34.008C34.1758 19.6452 34.3367 19.7103 34.4554 19.8261C34.5741 19.9418 34.6407 20.0989 34.6407 20.2627V24.3426ZM34.6407 17.5132C34.6402 17.6766 34.5733 17.8331 34.4547 17.9483C34.3361 18.0636 34.1754 18.1282 34.008 18.128H11.6819C11.599 18.1282 11.5169 18.1125 11.4403 18.0818C11.3637 18.0511 11.294 18.0059 11.2352 17.9489C11.1765 17.8919 11.1298 17.8242 11.0979 17.7496C11.0659 17.6749 11.0494 17.5949 11.0491 17.5141V13.4332C11.0489 13.3523 11.065 13.2721 11.0965 13.1973C11.1281 13.1224 11.1744 13.0544 11.233 12.9971C11.2915 12.9397 11.361 12.8942 11.4375 12.8631C11.5141 12.832 11.5962 12.8159 11.6791 12.8158H34.008C34.1758 12.8158 34.3367 12.8808 34.4554 12.9966C34.5741 13.1124 34.6407 13.2695 34.6407 13.4332V17.5132ZM13.5947 14.6038C13.4334 14.635 13.2838 14.7085 13.1618 14.8162C13.0399 14.924 12.9503 15.062 12.9025 15.2156C12.8546 15.3692 12.8505 15.5325 12.8904 15.6882C12.9303 15.844 13.0128 15.9862 13.129 16.0997C13.2453 16.2133 13.391 16.2939 13.5505 16.333C13.71 16.372 13.8775 16.3681 14.0349 16.3216C14.1923 16.275 14.3338 16.1877 14.4444 16.0688C14.5549 15.9499 14.6302 15.804 14.6624 15.6466C14.6898 15.5039 14.6811 15.3568 14.6371 15.2182C14.5932 15.0795 14.5152 14.9534 14.4101 14.8507C14.305 14.748 14.1758 14.6718 14.0337 14.6288C13.8916 14.5858 13.741 14.5772 13.5947 14.6038ZM13.5947 21.4341C13.4333 21.4653 13.2837 21.5388 13.1617 21.6465C13.0397 21.7543 12.9501 21.8924 12.9022 22.046C12.8544 22.1996 12.8503 22.3631 12.8902 22.5188C12.9302 22.6746 13.0128 22.8168 13.1291 22.9304C13.2454 23.0439 13.3912 23.1245 13.5508 23.1634C13.7104 23.2024 13.8779 23.1984 14.0353 23.1517C14.1928 23.1051 14.3343 23.0176 14.4447 22.8986C14.5552 22.7795 14.6304 22.6335 14.6624 22.476C14.6896 22.3334 14.6808 22.1864 14.6367 22.0479C14.5927 21.9093 14.5148 21.7833 14.4097 21.6807C14.3045 21.5782 14.1754 21.5021 14.0334 21.4591C13.8914 21.4162 13.7409 21.4076 13.5947 21.4341Z" fill="#A636CE"/>
</svg>
