<?xml version="1.0" standalone="no"?>
<!DOCTYPE svg PUBLIC "-//W3C//DTD SVG 20010904//EN"
 "http://www.w3.org/TR/2001/REC-SVG-20010904/DTD/svg10.dtd">
<svg version="1.0" xmlns="http://www.w3.org/2000/svg"
 width="240.000000pt" height="240.000000pt" viewBox="0 0 240.000000 240.000000"
 preserveAspectRatio="xMidYMid meet">
<metadata>
Created by potrace 1.11, written by Peter Selinger 2001-2013
</metadata>
<g transform="translate(0.000000,240.000000) scale(0.100000,-0.100000)"
fill="#000000" stroke="none">
<path d="M1057 1952 c-16 -7 -32 -10 -35 -7 -3 2 -17 -4 -32 -15 -16 -11 -33
-20 -38 -20 -16 0 -44 -31 -39 -44 3 -6 -2 -17 -9 -24 -11 -10 -14 -10 -14 0
0 8 -5 7 -16 -4 -13 -13 -22 -14 -39 -6 -17 8 -29 5 -60 -16 -44 -30 -51 -31
-63 -10 -5 9 -12 12 -15 7 -3 -5 -22 -8 -43 -7 -26 3 -45 -3 -69 -21 -17 -14
-37 -25 -44 -25 -7 0 -9 -4 -6 -10 3 -5 0 -8 -7 -5 -7 3 -20 0 -28 -5 -13 -9
-13 -12 3 -21 19 -11 23 -35 6 -41 -12 -4 -14 -36 -4 -89 5 -30 3 -40 -14 -51
-12 -8 -18 -18 -14 -21 3 -4 1 -7 -5 -7 -17 0 -15 20 3 26 26 11 16 23 -12 15
-18 -5 -29 -15 -31 -29 -2 -12 1 -22 6 -22 6 0 8 -9 5 -20 -3 -12 0 -20 7 -20
7 0 10 -7 6 -15 -4 -13 -2 -14 14 -5 11 6 20 17 20 24 0 24 34 11 41 -16 5
-18 2 -28 -12 -36 -11 -7 -19 -19 -19 -28 0 -8 -4 -13 -9 -10 -5 3 -7 15 -4
26 3 11 1 20 -4 20 -14 0 -43 -34 -43 -50 0 -9 -4 -9 -12 -2 -7 6 -25 10 -40
9 -25 -2 -28 -6 -28 -34 0 -18 -4 -33 -10 -33 -6 0 -19 -9 -30 -20 -23 -23
-17 -50 10 -43 13 4 19 -1 22 -19 2 -15 9 -22 21 -20 23 4 22 -15 -2 -28 -13
-7 -22 -7 -26 0 -11 17 -27 11 -17 -6 9 -17 -6 -64 -20 -64 -5 0 -8 -9 -8 -20
0 -11 6 -20 13 -20 47 0 40 -61 -9 -79 -19 -7 -34 -18 -34 -24 1 -18 26 -48
34 -40 4 4 4 0 0 -10 -4 -10 -1 -17 6 -17 9 0 11 11 7 35 -3 19 -2 37 4 40 5
3 6 0 3 -8 -3 -8 -1 -18 5 -22 23 -14 1 -65 -28 -65 -8 0 -7 -7 1 -20 l13 -21
18 22 c18 23 18 23 22 -46 2 -22 1 -34 -2 -27 -7 18 -20 15 -25 -6 -7 -25 29
-26 37 -1 4 10 15 19 25 19 28 0 51 52 29 66 -14 8 2 34 20 34 28 0 32 -12 15
-38 -13 -20 -14 -26 -3 -33 19 -12 42 -11 34 1 -3 6 1 10 9 10 9 0 16 -4 16
-10 0 -5 6 -7 13 -4 8 3 13 -4 14 -17 2 -17 -2 -20 -21 -15 -17 4 -30 -2 -51
-24 -16 -17 -23 -30 -17 -30 7 0 12 -6 12 -14 0 -9 10 -15 28 -15 15 0 40 -2
57 -4 16 -3 40 -1 54 4 23 9 23 10 6 29 -18 20 -13 40 10 40 7 0 16 -7 19 -16
6 -15 8 -15 25 0 16 14 19 15 24 3 4 -10 -4 -17 -24 -21 -29 -5 -39 -29 -19
-41 6 -4 9 -1 8 7 -2 8 6 12 23 10 24 -3 26 0 23 27 -3 23 1 31 12 31 9 0 12
5 8 12 -4 7 -3 8 5 4 14 -9 45 20 36 34 -3 5 -1 10 4 10 6 0 11 5 11 11 0 6
-6 9 -14 6 -8 -3 -20 2 -28 11 -11 15 -11 16 3 4 14 -10 18 -10 22 2 4 9 2 18
-3 21 -14 9 -12 42 3 48 7 3 21 -1 31 -9 17 -12 21 -11 33 4 11 15 12 15 7 1
-3 -10 -1 -20 5 -24 16 -9 13 -25 -3 -25 -27 0 -29 -22 -4 -45 18 -17 29 -20
41 -13 10 5 22 6 27 3 6 -3 10 4 10 15 0 16 -4 20 -15 16 -13 -4 -14 -2 -5 14
9 16 15 18 30 10 15 -8 24 -6 39 9 10 10 24 20 30 22 9 3 10 12 2 32 -11 27
-11 27 -41 12 -17 -9 -30 -11 -30 -5 0 5 5 10 11 10 19 0 39 28 32 46 -5 13
-3 15 7 9 9 -5 11 -4 6 3 -4 7 0 22 8 34 15 21 17 19 20 -14 1 -14 21 -38 30
-38 11 0 44 38 39 44 -3 3 -17 3 -29 0 -28 -7 -31 7 -8 31 15 15 18 14 31 -5
14 -20 33 -19 33 1 0 6 -4 8 -9 4 -14 -8 -9 38 5 53 16 16 29 15 44 -3 10 -13
10 -19 -2 -33 -17 -19 -30 -70 -30 -119 1 -26 -4 -33 -18 -33 -11 0 -24 -8
-29 -17 -10 -17 -12 -17 -27 2 -16 19 -16 19 -12 -12 2 -18 1 -30 -3 -28 -4 3
-10 -2 -13 -10 -4 -12 -10 -13 -24 -6 -14 8 -20 4 -31 -20 -7 -16 -10 -38 -6
-49 6 -18 8 -19 31 -4 28 19 54 12 54 -15 0 -22 -23 -34 -38 -19 -12 12 -52 1
-52 -14 0 -6 -6 -6 -15 2 -16 13 -21 35 -6 25 5 -3 12 -1 15 4 7 11 -51 5 -88
-9 -14 -5 -26 -14 -26 -19 0 -10 25 -32 31 -27 10 8 69 15 64 7 -3 -5 10 -8
30 -7 19 2 36 -2 39 -8 2 -6 11 -1 21 12 18 24 48 31 39 8 -7 -17 85 -64 95
-49 8 13 51 -2 51 -18 0 -6 9 -22 20 -36 24 -31 27 -126 6 -185 l-14 -38 79 0
78 0 -15 35 c-18 44 -18 166 0 210 8 18 12 43 9 55 -4 13 0 26 8 32 11 7 11
11 2 15 -15 5 -18 53 -4 53 5 0 9 10 9 23 2 63 17 135 34 160 22 31 62 36 94
12 10 -8 25 -15 33 -15 11 0 9 4 -5 15 -16 13 -17 16 -4 25 11 7 16 5 18 -5 5
-20 18 -19 26 2 4 9 1 20 -6 25 -10 6 -10 10 2 18 22 14 33 12 26 -5 -6 -17
13 -55 27 -55 4 0 6 4 3 9 -9 14 35 21 58 9 15 -8 21 -8 24 1 2 6 10 11 18 11
8 0 14 9 14 20 0 11 5 20 11 20 6 0 8 7 5 16 -5 12 -2 15 10 10 8 -3 18 -6 20
-6 2 0 -1 -9 -8 -19 -9 -15 -9 -23 1 -35 7 -9 17 -13 22 -10 5 3 9 -11 9 -30
0 -20 -3 -36 -7 -36 -5 0 -14 -4 -22 -9 -12 -8 -13 -12 -1 -25 16 -21 5 -34
-17 -20 -23 14 -30 74 -9 74 9 0 16 4 16 10 0 5 -8 6 -17 3 -12 -5 -15 -2 -10
10 4 11 2 14 -7 11 -8 -3 -11 -15 -8 -30 4 -24 4 -24 -66 -20 -55 4 -73 1 -83
-11 -11 -13 -10 -17 4 -28 9 -7 17 -19 17 -28 0 -10 6 -14 15 -11 11 4 12 11
5 24 -7 14 -5 19 9 23 13 3 21 -2 24 -15 4 -15 11 -18 26 -13 13 4 21 2 21 -5
0 -8 9 -10 26 -6 20 5 27 3 31 -13 7 -28 33 -35 49 -14 12 17 13 16 14 -4 0
-19 4 -21 22 -14 25 9 36 31 16 31 -18 0 12 20 31 20 9 0 4 -12 -13 -35 -15
-19 -26 -35 -24 -35 2 0 17 4 35 9 22 7 33 6 37 -2 2 -7 5 -2 5 10 1 12 6 25
13 29 7 5 8 3 3 -6 -5 -9 -2 -10 14 -5 12 4 21 2 21 -4 0 -6 5 -11 10 -11 15
0 12 14 -8 36 -24 25 -33 61 -18 68 6 3 -4 3 -21 0 -28 -5 -32 -3 -27 11 4 9
13 14 20 11 7 -3 16 -1 19 5 10 15 24 1 20 -20 -2 -10 1 -24 6 -32 6 -10 9
-11 9 -1 0 8 8 10 25 6 21 -5 25 -3 25 17 0 12 3 20 6 16 11 -11 34 21 28 37
-3 9 -1 16 5 16 14 0 14 53 0 67 -8 8 -6 15 10 25 26 16 27 40 1 63 -14 13
-17 22 -10 29 7 7 3 17 -10 31 l-20 21 38 0 c32 -1 38 -4 34 -19 -3 -13 0 -16
12 -11 19 7 20 18 5 45 -5 11 -15 17 -20 13 -15 -9 -39 28 -32 50 4 15 2 18
-13 12 -9 -4 -20 -3 -23 2 -3 5 -22 13 -41 16 -26 5 -31 4 -20 -3 13 -9 13
-11 -2 -11 -9 0 -24 -7 -32 -16 -18 -17 -22 -12 -30 38 -3 15 -8 33 -12 40 -6
10 -3 9 9 0 14 -12 19 -12 32 2 9 9 12 16 6 16 -16 0 -13 36 3 50 17 13 10 40
-10 40 -17 0 -34 31 -34 62 0 18 2 20 10 8 10 -17 15 -14 25 18 6 21 5 22 -12
14 -10 -5 -24 -7 -32 -4 -10 3 -12 0 -8 -11 3 -9 1 -19 -5 -23 -6 -4 -8 -3 -5
2 3 6 2 16 -2 23 -7 10 -14 8 -31 -9 -19 -19 -21 -26 -11 -41 13 -21 2 -26
-17 -7 -7 7 -12 9 -12 5 0 -4 -9 -3 -20 3 -26 14 -48 -6 -44 -38 3 -14 -1 -22
-11 -22 -10 0 -15 10 -15 33 0 18 -6 42 -14 53 -13 19 -12 20 21 18 19 0 39
-7 43 -14 7 -11 12 -11 23 -2 7 7 17 9 20 5 9 -9 37 17 37 34 0 8 -4 11 -10 8
-5 -3 -10 1 -10 10 0 12 -5 15 -16 11 -9 -3 -19 -6 -24 -6 -5 0 -11 -8 -13
-17 -4 -17 -5 -17 -6 0 -1 14 -7 16 -27 11 -19 -5 -25 -3 -23 7 5 26 -13 60
-37 69 -13 5 -23 15 -22 22 2 8 -7 13 -22 14 -14 1 -29 3 -35 4 -16 5 -57 10
-99 13 -22 1 -41 8 -44 16 -3 9 1 11 16 6 17 -5 23 -1 28 22 4 15 12 31 17 35
13 8 -67 45 -110 51 -19 3 -34 0 -37 -6 -3 -9 -7 -9 -13 0 -10 13 -74 12 -105
-2 -22 -9 -24 -37 -3 -29 18 7 19 0 5 -27 -6 -10 -17 -19 -24 -19 -8 0 -19 -7
-26 -15 -11 -13 -14 -13 -25 2 -9 13 -10 22 -3 30 6 7 8 18 5 25 -8 22 -3 33
16 30 28 -5 20 26 -12 42 -33 18 -80 17 -124 -2z m344 -55 c-13 -13 -26 -3
-16 12 3 6 11 8 17 5 6 -4 6 -10 -1 -17z m-301 9 c0 -3 -4 -8 -10 -11 -5 -3
-10 -1 -10 4 0 6 5 11 10 11 6 0 10 -2 10 -4z m-110 -20 c0 -3 -4 -8 -10 -11
-5 -3 -10 -1 -10 4 0 6 5 11 10 11 6 0 10 -2 10 -4z m-30 -16 c0 -5 -5 -10
-11 -10 -5 0 -7 5 -4 10 3 6 8 10 11 10 2 0 4 -4 4 -10z m140 -5 c-7 -9 -15
-13 -17 -11 -7 7 7 26 19 26 6 0 6 -6 -2 -15z m-40 -5 c0 -5 -4 -10 -10 -10
-5 0 -10 5 -10 10 0 6 5 10 10 10 6 0 10 -4 10 -10z m100 6 c0 -2 -7 -7 -16
-10 -8 -3 -12 -2 -9 4 6 10 25 14 25 6z m0 -48 c0 -6 -6 -5 -15 2 -8 7 -15 14
-15 16 0 2 7 1 15 -2 8 -4 15 -11 15 -16z m-363 -30 c-3 -8 -6 -5 -6 6 -1 11
2 17 5 13 3 -3 4 -12 1 -19z m-57 -24 c0 -2 -7 -4 -15 -4 -8 0 -15 4 -15 10 0
5 7 7 15 4 8 -4 15 -8 15 -10z m724 -6 c-3 -4 -1 -8 3 -8 5 0 18 -6 28 -14 18
-13 17 -14 -16 -31 -20 -10 -29 -12 -21 -4 18 19 15 36 -8 42 -26 7 -26 23 -1
23 11 0 17 -4 15 -8z m-749 -31 c-1 -12 -8 -22 -16 -22 -8 0 -13 6 -11 14 1 7
-2 19 -8 26 -8 9 -5 11 13 8 17 -3 23 -11 22 -26z m-52 17 c7 -7 -9 -23 -42
-42 -25 -15 -22 -5 8 29 18 19 25 22 34 13z m-86 -36 c-3 -7 -5 -2 -5 12 0 14
2 19 5 13 2 -7 2 -19 0 -25z m788 12 c3 -5 1 -10 -4 -10 -6 0 -11 5 -11 10 0
6 2 10 4 10 3 0 8 -4 11 -10z m-430 -10 c3 -5 1 -10 -4 -10 -6 0 -11 5 -11 10
0 6 2 10 4 10 3 0 8 -4 11 -10z m503 -31 l3 -34 -22 22 c-13 13 -19 28 -15 38
10 27 31 11 34 -26z m-884 16 c3 -8 1 -15 -4 -15 -6 0 -10 7 -10 15 0 8 2 15
4 15 2 0 6 -7 10 -15z m809 -8 c4 3 7 -1 7 -10 0 -15 -3 -15 -20 -5 -11 7 -20
20 -20 28 1 12 3 12 14 -2 7 -10 16 -15 19 -11z m-708 3 c3 -5 2 -10 -4 -10
-5 0 -13 5 -16 10 -3 6 -2 10 4 10 5 0 13 -4 16 -10z m225 6 c0 -3 -4 -8 -10
-11 -5 -3 -10 -1 -10 4 0 6 5 11 10 11 6 0 10 -2 10 -4z m50 -16 c0 -5 -9 -8
-20 -7 -20 1 -25 8 -14 20 8 7 34 -3 34 -13z m308 -39 c-15 -5 -19 4 -11 24 6
18 7 18 13 -1 4 -10 3 -21 -2 -23z m422 11 c0 -4 -9 -8 -20 -8 -11 0 -20 4
-20 8 0 4 9 8 20 8 11 0 20 -4 20 -8z m-1120 -12 c0 -5 -4 -10 -10 -10 -5 0
-10 5 -10 10 0 6 5 10 10 10 6 0 10 -4 10 -10z m180 -57 c0 -7 -4 -13 -10 -13
-5 0 -10 4 -10 9 0 5 -8 12 -17 14 -10 3 -6 4 10 4 15 -1 27 -7 27 -14z m65 7
c3 -5 1 -10 -4 -10 -6 0 -11 5 -11 10 0 6 2 10 4 10 3 0 8 -4 11 -10z m-217
-12 c-3 -7 -12 -14 -21 -16 -12 -2 -15 1 -11 12 7 19 38 22 32 4z m222 -30 c0
-17 -28 -7 -33 11 -4 17 -2 18 14 8 10 -6 19 -15 19 -19z m687 16 c-3 -3 -12
-4 -19 -1 -8 3 -5 6 6 6 11 1 17 -2 13 -5z m403 -29 c0 -7 -6 -15 -14 -18 -9
-4 -13 2 -12 17 1 24 26 25 26 1z m-640 5 c0 -12 -8 -12 -35 0 -18 8 -17 9 8
9 15 1 27 -3 27 -9z m130 5 c0 -3 -9 -15 -20 -27 -20 -21 -20 -21 -20 -2 0 12
3 24 7 27 8 8 33 9 33 2z m328 -18 c2 -11 -3 -15 -17 -14 -21 1 -28 17 -14 31
10 10 28 1 31 -17z m-1118 9 c0 -3 -4 -8 -10 -11 -5 -3 -10 -1 -10 4 0 6 5 11
10 11 6 0 10 -2 10 -4z m1195 -6 c-3 -5 -12 -10 -18 -10 -7 0 -6 4 3 10 19 12
23 12 15 0z m-672 -26 c-3 -8 -12 -13 -20 -10 -8 3 -17 6 -19 6 -13 0 -1 19
14 23 24 5 32 -1 25 -19z m189 14 c-16 -16 -15 -28 2 -28 9 0 13 -10 11 -32
-1 -18 -5 -32 -9 -30 -3 1 -12 5 -20 8 -11 4 -14 15 -10 37 9 49 12 57 26 57
9 0 9 -3 0 -12z m523 -8 c3 -5 2 -10 -4 -10 -5 0 -13 5 -16 10 -3 6 -2 10 4
10 5 0 13 -4 16 -10z m-786 -14 c14 -7 26 -24 27 -37 2 -13 0 -18 -2 -11 -3 6
-13 12 -21 12 -15 0 -42 27 -43 43 0 10 11 8 39 -7z m151 4 c0 -5 -4 -10 -10
-10 -5 0 -10 5 -10 10 0 6 5 10 10 10 6 0 10 -4 10 -10z m184 -20 c-9 -16 -20
-30 -25 -30 -11 0 -4 16 19 43 21 24 23 21 6 -13z m59 -25 c-3 -9 -8 -14 -10
-11 -3 3 -2 9 2 15 9 16 15 13 8 -4z m141 -3 c3 -5 -1 -9 -9 -9 -8 0 -12 4 -9
9 3 4 7 8 9 8 2 0 6 -4 9 -8z m253 2 c-3 -3 -12 -4 -19 -1 -8 3 -5 6 6 6 11 1
17 -2 13 -5z m69 -61 c-13 -13 -28 15 -20 38 l7 24 10 -28 c5 -16 6 -31 3 -34z
m-659 0 c-11 -10 -26 8 -20 23 5 15 7 14 15 -1 6 -9 7 -19 5 -22z m376 -30 c6
-36 -20 -56 -36 -28 -7 13 -12 14 -23 4 -12 -10 -12 -14 -2 -20 10 -6 10 -9 1
-9 -7 0 -17 8 -22 18 -11 21 8 52 32 52 8 0 18 8 21 17 9 22 23 6 29 -34z
m-895 3 c-2 -1 -12 -8 -22 -16 -18 -14 -18 -14 -6 7 8 12 18 19 23 16 4 -3 7
-6 5 -7z m-214 -31 c3 -8 1 -15 -4 -15 -6 0 -10 7 -10 15 0 8 2 15 4 15 2 0 6
-7 10 -15z m1191 5 c-3 -5 -10 -10 -16 -10 -5 0 -9 5 -9 10 0 6 7 10 16 10 8
0 12 -4 9 -10z m-775 -4 c0 -3 -4 -8 -10 -11 -5 -3 -10 -1 -10 4 0 6 5 11 10
11 6 0 10 -2 10 -4z m880 -10 c0 -3 -4 -8 -10 -11 -5 -3 -10 -1 -10 4 0 6 5
11 10 11 6 0 10 -2 10 -4z m224 -37 c-6 -11 -24 -2 -24 11 0 5 7 7 15 4 8 -4
12 -10 9 -15z m-1526 -6 c-2 -9 -8 -18 -15 -20 -7 -3 -9 3 -6 16 6 25 26 28
21 4z m377 7 c3 -5 2 -10 -4 -10 -5 0 -13 5 -16 10 -3 6 -2 10 4 10 5 0 13 -4
16 -10z m770 -10 c-3 -5 -12 -10 -20 -10 -8 0 -17 5 -20 10 -4 6 5 10 20 10
15 0 24 -4 20 -10z m187 -49 c10 -16 15 -18 27 -8 11 9 15 9 19 -1 2 -7 13
-22 24 -32 l20 -19 -21 6 c-11 3 -21 10 -21 17 0 6 -4 6 -9 -3 -6 -9 -11 -10
-15 -2 -4 6 -18 11 -30 11 -15 0 -26 7 -29 19 -9 35 16 43 35 12z m-667 0 c3
-5 1 -12 -5 -16 -5 -3 -10 1 -10 9 0 18 6 21 15 7z m-475 -20 c0 -5 -9 -11
-20 -14 -20 -5 -26 3 -13 16 9 10 33 8 33 -2z m585 -1 c3 -5 1 -10 -4 -10 -6
0 -11 5 -11 10 0 6 2 10 4 10 3 0 8 -4 11 -10z m710 0 c3 -5 1 -10 -4 -10 -6
0 -11 5 -11 10 0 6 2 10 4 10 3 0 8 -4 11 -10z m-769 -45 c7 -22 14 -41 14
-43 0 -2 -18 12 -39 30 -35 29 -37 34 -22 45 23 18 31 12 47 -32z m-331 25 c3
-5 1 -10 -4 -10 -6 0 -11 5 -11 10 0 6 2 10 4 10 3 0 8 -4 11 -10z m-36 -51
c-21 -12 -24 -2 -8 28 14 26 14 26 17 3 2 -12 -2 -26 -9 -31z m1178 22 c-1
-15 -4 -17 -14 -9 -7 5 -10 14 -7 19 10 16 23 9 21 -10z m-1365 -19 c-17 -26
-9 -41 13 -22 12 10 15 10 15 -1 0 -11 3 -11 11 1 9 12 10 12 5 -3 -3 -10 -6
-26 -6 -34 0 -9 -3 -14 -6 -10 -4 3 -22 0 -40 -8 -33 -14 -34 -13 -29 8 4 13
7 39 8 59 2 29 6 35 23 34 20 -1 20 -3 6 -24z m-250 6 c-9 -9 -15 -9 -24 0 -9
9 -7 12 12 12 19 0 21 -3 12 -12z m53 2 c3 -5 -1 -10 -9 -10 -9 0 -16 5 -16
10 0 6 4 10 9 10 6 0 13 -4 16 -10z m1235 -30 c-8 -5 -19 -10 -25 -10 -5 0 -3
5 5 10 8 5 20 10 25 10 6 0 3 -5 -5 -10z m-780 -4 c0 -2 -7 -7 -16 -10 -8 -3
-12 -2 -9 4 6 10 25 14 25 6z m434 -23 c-7 -16 -14 -35 -14 -43 -1 -11 -4 -10
-15 5 -14 17 -13 21 11 42 34 29 36 29 18 -4z m143 11 c13 -13 18 -13 25 -2 8
11 9 11 6 0 -2 -8 -7 -13 -11 -13 -4 1 -16 1 -27 1 -11 0 -20 7 -20 15 0 19 7
19 27 -1z m-617 -27 c0 -9 -51 -29 -58 -23 -2 3 6 16 19 30 22 23 38 20 39 -7z
m-60 3 c0 -5 -7 -10 -15 -10 -8 0 -15 5 -15 10 0 6 7 10 15 10 8 0 15 -4 15
-10z m402 -7 c19 -22 68 -107 68 -118 0 -4 -9 0 -19 9 -19 17 -20 17 -23 -11
-3 -32 -37 -44 -57 -19 -7 8 -18 13 -24 10 -15 -5 -38 44 -32 71 15 76 15 75
44 75 15 0 35 -8 43 -17z m811 -22 c13 -26 13 -28 -4 -24 -12 3 -19 14 -19 29
0 31 5 30 23 -5z m-613 -11 c-19 -13 -30 -13 -30 0 0 6 10 10 23 10 18 0 19
-2 7 -10z m-857 -29 c3 -14 0 -19 -13 -18 -15 1 -16 5 -9 19 12 23 15 23 22
-1z m310 -45 c-4 -6 1 -5 10 3 20 16 32 9 24 -12 -6 -16 -57 -11 -57 5 0 5 -6
6 -12 2 -10 -6 -9 -3 0 8 15 18 46 13 35 -6z m990 3 c21 -24 21 -24 -10 -33
-14 -5 -23 -3 -23 3 0 6 -11 11 -25 11 -14 0 -25 5 -25 10 0 10 14 14 38 11 6
-1 12 3 12 9 0 16 14 12 33 -11z m-1323 -16 c0 -5 -5 -15 -10 -23 -8 -13 -11
-13 -22 -1 -10 10 -10 12 0 7 7 -4 12 -1 12 8 0 9 5 16 10 16 6 0 10 -3 10 -7z
m750 -33 c0 -5 -5 -10 -11 -10 -5 0 -7 5 -4 10 3 6 8 10 11 10 2 0 4 -4 4 -10z
m-40 -68 c0 -7 -4 -10 -10 -7 -5 3 -10 16 -10 28 0 18 2 19 10 7 5 -8 10 -21
10 -28z m-726 19 c3 -5 -3 -11 -15 -14 -16 -4 -18 -3 -8 9 13 16 16 17 23 5z
m83 3 c-3 -3 -12 -4 -19 -1 -8 3 -5 6 6 6 11 1 17 -2 13 -5z m-28 -18 c9 -10
8 -16 -4 -26 -13 -11 -15 -9 -13 14 3 30 2 30 17 12z m523 -48 c-2 -11 -10
-17 -18 -14 -7 3 -16 0 -20 -6 -4 -7 -9 -6 -15 3 -16 25 -9 34 25 35 28 1 32
-2 28 -18z m63 -18 c4 -6 11 -8 16 -5 5 4 9 -9 9 -27 0 -18 -4 -28 -8 -21 -4
6 -16 11 -27 10 -18 -2 -21 5 -16 43 1 13 18 13 26 0z m-41 -65 c6 -17 4 -18
-18 -9 -20 8 -21 24 -2 24 8 0 16 -7 20 -15z"/>
<path d="M1515 1850 c-3 -5 -1 -19 5 -31 7 -11 13 -19 14 -17 1 1 7 11 14 20
11 14 10 18 -7 27 -13 7 -22 8 -26 1z"/>
<path d="M1945 1490 c-10 -17 12 -37 25 -24 8 8 6 15 -4 23 -10 9 -16 9 -21 1z"/>
<path d="M1695 891 c-3 -5 -1 -12 5 -16 5 -3 10 1 10 9 0 18 -6 21 -15 7z"/>
<path d="M1915 823 c-16 -8 -31 -16 -32 -17 -9 -7 13 -46 26 -46 26 0 38 13
46 48 7 36 3 38 -40 15z"/>
</g>
</svg>
