<svg width="459" height="375" viewBox="0 0 459 375" fill="none" xmlns="http://www.w3.org/2000/svg">
<path fill-rule="evenodd" clip-rule="evenodd" d="M222.33 1.94717C220.217 2.98892 217.282 5.45092 215.807 7.41867C214.332 9.38642 208.164 25.5011 202.101 43.2305C190.759 76.3941 189.279 79.3272 182.183 82.6966C173.704 86.7224 167.831 84.7095 153.92 73.0084C143 63.8225 137.887 61.7228 131.017 63.6037C123.056 65.7844 120.835 68.8634 104.675 100.124L89.1173 130.219L89.049 156.841C88.9738 185.426 88.2843 191.873 84.8033 196.539C79.5013 203.644 77.5993 204.251 58.6299 204.894C46.8169 205.293 40.1231 206.013 38.1773 207.093C32.8382 210.054 3.14326 238.971 1.56064 242.749C0.384086 245.556 0 253.998 0 277.003C0 306.498 0.0879234 307.69 2.603 312.228C4.17405 315.062 20.8668 331.657 44.7252 354.104C71.5581 379.349 84.6482 392.446 85.5055 394.904C86.1985 396.896 86.77 402.224 86.7734 406.744C86.7769 411.266 87.2917 416.81 87.9188 419.066C89.211 423.72 95.0128 429.849 99.8567 431.677C104.912 433.583 141.531 433.271 146.094 431.282C148.142 430.39 157.886 422.029 167.749 412.703C177.611 403.377 187.242 394.9 189.151 393.866C191.642 392.515 197.049 391.796 208.296 391.321C230.72 390.37 230.06 390.967 241.441 361.41C245.542 350.757 250.032 340.82 251.418 339.327C256.857 333.465 257.661 333.36 296.798 333.36C337.817 333.36 339.159 333.587 344.174 341.354C345.651 343.642 352.459 359.511 359.305 376.619C366.149 393.727 373.025 409.241 374.585 411.097C379.043 416.397 382.997 417.855 392.994 417.883C410.293 417.932 416.325 423.292 417.695 439.836C418.61 450.896 419.317 452.812 424.189 457.428C429.389 462.356 432.722 463 453.043 463C469.643 463 472.655 462.711 476.394 460.759C481.197 458.252 511.479 430.011 515.971 423.851L518.864 419.885L519.442 385.015C519.892 357.915 520.385 349.5 521.658 347.258C522.559 345.67 534.968 327.56 549.233 307.012C563.5 286.464 575.696 267.754 576.336 265.433C576.976 263.114 577.192 259.671 576.813 257.783C575.958 253.503 540.695 174.162 537.801 170.006C533.749 164.188 529.576 163.208 508.847 163.208C498.441 163.208 488.19 162.71 486.068 162.101C481.762 160.865 461.689 148.325 456.539 143.652C454.711 141.993 452.498 138.96 451.622 136.912C448.406 129.391 449.356 126.285 462.965 99.8172C473.717 78.9081 475.907 73.7793 475.935 69.4502C475.952 66.5854 473.14 52.2799 469.686 37.6595C460.677 -0.46158 461.208 0.000258466 426.425 0.000258466C402.48 0.000258466 399.435 0.525763 394.11 5.57246C388.496 10.8912 388.205 12.2223 387.577 35.3422L386.979 57.3729L377.724 72.3822C369.687 85.4156 367.784 87.7445 363.262 90.0711C355.613 94.0077 351.458 93.0702 330.291 82.6307C305.608 70.4561 306.622 72.2352 306.588 41.0915C306.574 28.359 306.05 16.0953 305.423 13.8393C304.13 9.18502 298.329 3.05606 293.485 1.22837C291.467 0.467888 278.036 0.010676 258.2 0.026881C230.918 0.0488734 225.602 0.333618 222.33 1.94717Z" fill="url(#paint0_radial_131_890)" fill-opacity="0.05" style="mix-blend-mode:overlay"/>
<defs>
<radialGradient id="paint0_radial_131_890" cx="0" cy="0" r="1" gradientUnits="userSpaceOnUse" gradientTransform="translate(296.163 296.192) rotate(84.1967) scale(440.499 440.461)">
<stop stop-color="#F4F4F4" stop-opacity="0.79"/>
<stop offset="1" stop-color="#F4ECF7" stop-opacity="0"/>
</radialGradient>
</defs>
</svg>
