<svg width="318" height="361" viewBox="0 0 318 361" fill="none" xmlns="http://www.w3.org/2000/svg">
<path fill-rule="evenodd" clip-rule="evenodd" d="M59.4614 361V86.9867H23.5555C10.5462 86.9867 0 76.1271 0 62.7312C0 49.3353 10.5462 38.4757 23.5555 38.4757H59.4614V8.15636C59.4614 5.29479 59.9426 2.54896 60.8263 0H105.208C106.091 2.54896 106.572 5.29479 106.572 8.15636V38.4757H138.723V8.15636C138.723 5.29479 139.204 2.54896 140.088 0H184.469C185.353 2.54896 185.834 5.29479 185.834 8.15636V40.5369C232.523 50.4985 266.619 94.0293 265.111 144.593C265.794 167.512 259.163 188.985 247.361 206.543C289.527 219.747 319.365 260.945 317.952 308.317C317.984 309.386 318 310.452 318 311.515C318 311.535 318 311.555 318 311.575C317.996 327.306 314.55 342.292 308.37 355.719C304.13 359.028 298.795 361 293 361H240.395C259.05 352.051 271.729 332.086 270.845 309.285C270.82 308.641 270.82 307.996 270.845 307.351C272.008 277.341 249.676 252.246 221.152 250.711H106.572V361H59.4614ZM106.572 202.2V86.9867H168.31C196.835 88.5219 219.167 113.617 218.004 143.626C217.979 144.271 217.979 144.916 218.004 145.56C219.167 175.57 196.835 200.665 168.31 202.2H106.572Z" fill="#F4ECF7" fill-opacity="0.02" style="mix-blend-mode:overlay"/>
</svg>
