<svg width="71" height="71" viewBox="0 0 71 71" fill="none" xmlns="http://www.w3.org/2000/svg">
<rect width="71" height="71" rx="21" fill="#3C1249"/>
<path d="M35.5 15.5C27.2054 15.5 20.5 22.2706 20.5 30.5992V40.2975C20.5 43.2614 22.8881 45.683 25.8571 45.683C28.8262 45.683 31.2143 43.2614 31.2143 40.2975V34.4691C31.2143 31.5052 28.8262 29.0836 25.8571 29.0836C25.0258 29.0836 24.2399 29.2736 23.5393 29.6121C24.0378 23.3829 29.2116 18.5 35.5 18.5C41.7884 18.5 46.9622 23.3829 47.4607 29.6121C46.7601 29.2736 45.9742 29.0836 45.1429 29.0836C42.1738 29.0836 39.7857 31.5052 39.7857 34.4691V40.2975C39.7857 43.2614 42.1738 45.683 45.1429 45.683C45.5222 45.683 45.892 45.6434 46.2485 45.5684C45.2692 47.5188 43.7617 49.1681 41.8927 50.3101C41.3156 48.4907 39.4109 47.4294 37.5552 47.929L34.4512 48.6047C33.1567 48.7499 32.0557 49.6166 31.6042 50.8409C31.1398 52.1005 31.4432 53.5188 32.3876 54.4758C33.3061 55.4066 34.6688 55.7354 35.9062 55.3281L38.8705 54.6814C38.9334 54.6754 38.9967 54.6653 39.0601 54.651C45.7373 53.1465 50.4792 47.191 50.5 40.3176V30.5992C50.5 22.2706 43.7946 15.5 35.5 15.5Z" fill="#992CC0"/>
</svg>
