<svg width="71" height="71" viewBox="0 0 71 71" fill="none" xmlns="http://www.w3.org/2000/svg">
<rect width="71" height="71" rx="21" fill="#3C1249"/>
<path fill-rule="evenodd" clip-rule="evenodd" d="M29.0486 15C30.1532 15 31.0486 15.9223 31.0486 17.0599V19.6348H33.7784V17.0599C33.7784 15.9223 34.6738 15 35.7784 15C36.883 15 37.7784 15.9223 37.7784 17.0599V19.8099C41.7425 20.6559 44.6374 24.3528 44.5094 28.647C44.5674 30.5933 44.0044 32.417 43.0024 33.908C46.5825 35.0294 49.1159 38.5283 48.9959 42.5514C49.1382 47.3198 45.5529 51.3521 40.9146 51.5616C40.8854 51.5629 40.8562 51.5635 40.827 51.5635H37.7784V54.1384C37.7784 55.2761 36.883 56.1984 35.7784 56.1984C34.6738 56.1984 33.7784 55.2761 33.7784 54.1384V51.5635H31.0486V54.1384C31.0486 55.2761 30.1532 56.1984 29.0486 56.1984C27.944 56.1984 27.0486 55.2761 27.0486 54.1384V51.5635H24C22.8954 51.5635 22 50.6413 22 49.5036C22 48.366 22.8954 47.4437 24 47.4437H27.0486V23.7547H24C22.8954 23.7547 22 22.8324 22 21.6947C22 20.5571 22.8954 19.6348 24 19.6348H27.0486V17.0599C27.0486 15.9223 27.944 15 29.0486 15ZM31.0486 23.7547V33.5393H36.2905C38.7124 33.4089 40.6085 31.2777 40.5098 28.7291C40.5076 28.6744 40.5076 28.6196 40.5098 28.5648C40.6085 26.0162 38.7124 23.885 36.2905 23.7547H31.0486ZM40.777 37.6591H31.0486V47.4437H40.7791C43.2002 47.3122 45.095 45.1814 44.9963 42.6336C44.9942 42.5788 44.9942 42.524 44.9963 42.4693C45.095 39.9207 43.1989 37.7895 40.777 37.6591Z" fill="#992CC0"/>
</svg>
