<svg width="319" height="361" viewBox="0 0 319 361" fill="none" xmlns="http://www.w3.org/2000/svg">
<path fill-rule="evenodd" clip-rule="evenodd" d="M273.019 0H207.439C256.691 16.601 293.128 61.6409 297.466 115.938C289.736 112.197 281.066 110.099 271.893 110.099C239.135 110.099 212.786 136.857 212.786 169.609V234.011C212.786 266.763 239.135 293.521 271.893 293.521C276.078 293.521 280.158 293.084 284.092 292.254C273.287 313.807 256.654 332.031 236.033 344.65C229.665 324.547 208.65 312.82 188.176 318.34L153.928 325.807C139.645 327.41 127.498 336.987 122.517 350.516C121.257 353.939 120.509 357.467 120.253 361H270.251C291.727 343.704 308.555 321.091 319 295.362V64.3649C308.961 39.3242 293.066 17.2903 273.019 0ZM57.9808 0C22.4781 30.6205 0 76.1182 0 126.847V234.011C0 266.763 26.349 293.521 59.1071 293.521C91.8653 293.521 118.214 266.763 118.214 234.011V169.609C118.214 136.857 91.8653 110.099 59.1071 110.099C49.9343 110.099 41.264 112.197 33.534 115.938C37.8724 61.6409 74.3094 16.601 123.561 0H57.9808Z" fill="#F4ECF7" fill-opacity="0.02" style="mix-blend-mode:overlay"/>
</svg>
