<svg width="9" height="20" viewBox="0 0 9 20" fill="none" xmlns="http://www.w3.org/2000/svg">
<path d="M2.90501 18.5997C2.90501 19.1519 3.35272 19.5997 3.90501 19.5997C4.45729 19.5997 4.90501 19.1519 4.90501 18.5997H2.90501ZM4.90501 8.66296C4.90501 8.11068 4.45729 7.66296 3.90501 7.66296C3.35272 7.66296 2.90501 8.11068 2.90501 8.66296H4.90501ZM7.63127 2.21045C8.18355 2.21045 8.63127 1.76273 8.63127 1.21045C8.63127 0.658164 8.18355 0.210449 7.63127 0.210449V2.21045ZM3.90501 4.93671H2.90501H3.90501ZM2.90501 8.66296C2.90501 9.21525 3.35272 9.66296 3.90501 9.66296C4.45729 9.66296 4.90501 9.21525 4.90501 8.66296H2.90501ZM3.90501 7.66296C3.35272 7.66296 2.90501 8.11068 2.90501 8.66296C2.90501 9.21525 3.35272 9.66296 3.90501 9.66296V7.66296ZM6.38918 9.66296C6.94147 9.66296 7.38918 9.21525 7.38918 8.66296C7.38918 8.11068 6.94147 7.66296 6.38918 7.66296V9.66296ZM3.90501 9.66296C4.45729 9.66296 4.90501 9.21525 4.90501 8.66296C4.90501 8.11068 4.45729 7.66296 3.90501 7.66296V9.66296ZM1.42084 7.66296C0.868553 7.66296 0.420837 8.11068 0.420837 8.66296C0.420837 9.21525 0.868553 9.66296 1.42084 9.66296V7.66296ZM4.90501 18.5997V8.66296H2.90501V18.5997H4.90501ZM7.63127 0.210449C5.02103 0.210449 2.90501 2.32647 2.90501 4.93671H4.90501C4.90501 3.43104 6.1256 2.21045 7.63127 2.21045V0.210449ZM2.90501 4.93671V8.66296H4.90501V4.93671H2.90501ZM3.90501 9.66296H6.38918V7.66296H3.90501V9.66296ZM3.90501 7.66296H1.42084V9.66296H3.90501V7.66296Z" fill="#F9F9F9"/>
</svg>
