<svg width="71" height="71" viewBox="0 0 71 71" fill="none" xmlns="http://www.w3.org/2000/svg">
<rect width="71" height="71" rx="21" fill="#3C1249"/>
<path fill-rule="evenodd" clip-rule="evenodd" d="M19.8159 29.9129C26.2524 24.9178 32.4438 23.9658 37.7005 24.6991C43.021 25.4412 47.4822 27.9285 50.2878 29.9501C51.0688 30.5128 52.1593 30.3375 52.7235 29.5585C53.2877 28.7795 53.112 27.6918 52.331 27.1291C49.254 24.9119 44.2609 22.1002 38.1837 21.2525C32.0428 20.3959 24.8931 21.5633 17.6733 27.1663C16.9129 27.7564 16.7761 28.8496 17.3678 29.6081C17.9594 30.3666 19.0555 30.503 19.8159 29.9129ZM24.9081 35.7091C30.8491 31.0633 39.2025 31.0633 45.1436 35.7091C45.9018 36.302 46.9984 36.1696 47.5929 35.4133C48.1873 34.657 48.0545 33.5633 47.2963 32.9703C40.0912 27.3361 29.9605 27.3361 22.7553 32.9703C21.9971 33.5633 21.8643 34.657 22.4588 35.4133C23.0532 36.1696 24.1498 36.302 24.9081 35.7091ZM35.027 37.2397C31.4942 37.2397 28.6303 40.0962 28.6303 43.6198C28.6303 47.1435 31.4942 50 35.027 50C38.5598 50 41.4236 47.1435 41.4236 43.6198C41.4236 40.0962 38.5598 37.2397 35.027 37.2397Z" fill="#992CC0"/>
</svg>
