<svg width="71" height="71" viewBox="0 0 71 71" fill="none" xmlns="http://www.w3.org/2000/svg">
<rect width="71" height="71" rx="21" fill="#3C1249"/>
<path fill-rule="evenodd" clip-rule="evenodd" d="M55 29C56.6569 29 58 30.3431 58 32V39C58 40.6569 56.6569 42 55 42L16 42C14.3431 42 13 40.6569 13 39V32C13 30.3431 14.3431 29 16 29H55ZM22 33C22.5523 33 23 33.4477 23 34V38C23 38.5523 22.5523 39 22 39H18C17.4477 39 17 38.5523 17 38V34C17 33.4477 17.4477 33 18 33H22ZM46 34C46 33.4477 45.5523 33 45 33H41C40.4477 33 40 33.4477 40 34V38C40 38.5523 40.4477 39 41 39H45C45.5523 39 46 38.5523 46 38V34ZM31 33C31.5523 33 32 33.4477 32 34V38C32 38.5523 31.5523 39 31 39H27C26.4477 39 26 38.5523 26 38V34C26 33.4477 26.4477 33 27 33H31ZM55 34C55 33.4477 54.5523 33 54 33H50C49.4477 33 49 33.4477 49 34V38C49 38.5523 49.4477 39 50 39H54C54.5523 39 55 38.5523 55 38V34Z" fill="#992CC0"/>
</svg>
