<svg width="71" height="71" viewBox="0 0 71 71" fill="none" xmlns="http://www.w3.org/2000/svg">
<rect width="71" height="71" rx="21" fill="#3C1249"/>
<path fill-rule="evenodd" clip-rule="evenodd" d="M40.3184 24.004C42.7663 23.9323 45.1428 24.8191 46.9246 26.4692C48.7065 28.1192 49.7475 30.3973 49.8184 32.8016C49.8195 33.6562 49.6868 34.5059 49.4249 35.3209C52.5817 35.819 54.9266 38.4596 55 41.5991C54.8877 45.2379 51.7972 48.1004 48.0921 47.9973H23.9079C20.2028 48.1004 17.1123 45.2379 17 41.5991C17.0623 38.6046 19.2056 36.0421 22.1843 35.4008C22.1843 35.3333 22.1843 35.2667 22.1843 35.2009C22.2966 31.5621 25.3871 28.6996 29.0921 28.8027C29.9574 28.8015 30.816 28.9523 31.6273 29.2479C33.2495 25.9975 36.6332 23.9559 40.3184 24.004Z" fill="#992CC0"/>
<path fill-rule="evenodd" clip-rule="evenodd" d="M37.7263 47.9972L23.9079 47.9973ZM34.2738 47.9972L48.0921 47.9973Z" fill="#992CC0"/>
</svg>
