<svg width="71" height="71" viewBox="0 0 71 71" fill="none" xmlns="http://www.w3.org/2000/svg">
<rect width="71" height="71" rx="21" fill="#3C1249"/>
<path fill-rule="evenodd" clip-rule="evenodd" d="M25.248 43.2508C20.3597 38.5088 19.5978 30.9351 23.4436 25.3145C25.05 22.9674 27.3137 21.147 29.9507 20.0815C33.5101 18.6395 37.4911 18.6395 41.0506 20.0815C43.6875 21.147 45.9512 22.9674 47.5576 25.3145C51.4035 30.9351 50.6416 38.5088 45.7532 43.2508L40.3338 47.4106L35.5006 52.1464L30.6675 47.4106L25.248 43.2508ZM35.5016 39.7165C38.934 39.7165 41.7165 36.934 41.7165 33.5016C41.7165 30.0691 38.934 27.2866 35.5016 27.2866C32.0691 27.2866 29.2866 30.0691 29.2866 33.5016C29.2866 36.934 32.0691 39.7165 35.5016 39.7165Z" fill="#992CC0"/>
</svg>
