<svg width="71" height="71" viewBox="0 0 71 71" fill="none" xmlns="http://www.w3.org/2000/svg">
<rect width="71" height="71" rx="21" fill="#3C1249"/>
<path fill-rule="evenodd" clip-rule="evenodd" d="M39.6106 17.8056C39.6106 16.8084 40.4189 16 41.4161 16C42.4133 16 43.2217 16.8084 43.2217 17.8056V23.2222H44C46.7614 23.2222 49 25.4607 49 28.2222V44.2222C49 46.9836 46.7614 49.2222 44 49.2222H43.2217V53.9158C43.2217 54.913 42.4133 55.7214 41.4161 55.7214C40.4189 55.7214 39.6106 54.913 39.6106 53.9158V49.2222H33.1111V53.9159C33.1111 54.9131 32.3027 55.7215 31.3056 55.7215C30.3084 55.7215 29.5 54.9131 29.5 53.9159V49.2222H28C25.2386 49.2222 23 46.9836 23 44.2222V28.2222C23 25.4607 25.2386 23.2222 28 23.2222H29.5V17.8056C29.5 16.8084 30.3084 16 31.3056 16C32.3027 16 33.1111 16.8084 33.1111 17.8056V23.2222H39.6106V17.8056Z" fill="#992CC0"/>
</svg>
