<svg width="20" height="21" viewBox="0 0 20 21" fill="none" xmlns="http://www.w3.org/2000/svg">
<path fill-rule="evenodd" clip-rule="evenodd" d="M6.635 1.00001H13.5362C13.6079 1.00001 13.6792 1.00459 13.75 1.01376C16.5592 1.21021 18.7405 3.5415 18.75 6.35751V14.3938C18.7397 17.3589 16.3301 19.7555 13.365 19.75H6.635C3.66939 19.7555 1.25965 17.3581 1.25 14.3925V6.35751C1.25965 3.39191 3.66939 0.994476 6.635 1.00001Z" stroke="#F9F9F9" stroke-width="2" stroke-linecap="round" stroke-linejoin="round"/>
<path d="M18.75 7.35742C19.3023 7.35742 19.75 6.90971 19.75 6.35742C19.75 5.80514 19.3023 5.35742 18.75 5.35742V7.35742ZM13.75 6.35742H12.75C12.75 6.90971 13.1977 7.35742 13.75 7.35742V6.35742ZM14.75 1.01367C14.75 0.461387 14.3023 0.0136719 13.75 0.0136719C13.1977 0.0136719 12.75 0.461387 12.75 1.01367H14.75ZM8.75 15.7499C9.30228 15.7499 9.75 15.3022 9.75 14.7499C9.75 14.1976 9.30228 13.7499 8.75 13.7499V15.7499ZM5 13.7499C4.44772 13.7499 4 14.1976 4 14.7499C4 15.3022 4.44772 15.7499 5 15.7499V13.7499ZM13.75 11.9999C14.3023 11.9999 14.75 11.5522 14.75 10.9999C14.75 10.4476 14.3023 9.99992 13.75 9.99992V11.9999ZM5 9.99992C4.44772 9.99992 4 10.4476 4 10.9999C4 11.5522 4.44772 11.9999 5 11.9999V9.99992ZM18.75 5.35742H13.75V7.35742H18.75V5.35742ZM14.75 6.35742V1.01367H12.75V6.35742H14.75ZM8.75 13.7499H5V15.7499H8.75V13.7499ZM13.75 9.99992H5V11.9999H13.75V9.99992Z" fill="#F9F9F9"/>
</svg>
