<svg width="71" height="71" viewBox="0 0 71 71" fill="none" xmlns="http://www.w3.org/2000/svg">
<rect width="71" height="71" rx="21" fill="#3C1249"/>
<path fill-rule="evenodd" clip-rule="evenodd" d="M53.1966 23.0315C53.1449 23.0817 39.1307 31.0958 39.0948 31.0958C39.077 31.0958 39.0625 29.2743 39.0625 27.0479V23H46.1459C50.0416 23 53.2145 23.0142 53.1966 23.0315ZM36.7188 28.6826V34.3653H45.8594H55V36.0389V37.7126H45.8594H36.7188V43.3563V49H35H33.2812V43.3563V37.7126H24.1406H15V36.0389V34.3653H24.1406H33.2812V28.6826V23H35H36.7188V28.6826ZM30.9375 27.0479C30.9375 29.2743 30.9207 31.0958 30.9002 31.0958C30.8612 31.0958 17.4021 23.4057 16.9922 23.1493C16.7616 23.005 16.8724 23.0026 23.8477 23.0013L30.9375 23V27.0479ZM55 28.3636V32.0299H48.6552C43.3363 32.0299 42.3287 32.013 42.4247 31.9252C42.4876 31.8677 45.2285 30.2846 48.5156 28.4074C51.8027 26.5301 54.6064 24.9273 54.7461 24.8457L55 24.6972V28.3636ZM21.2891 28.3014C24.7266 30.271 27.5725 31.9157 27.6133 31.9562C27.66 32.0026 25.3341 32.0299 21.3438 32.0299H15V28.3713C15 26.359 15.0088 24.7143 15.0195 24.7163C15.0302 24.7184 17.8516 26.3317 21.2891 28.3014ZM55 43.6677C55 45.6585 54.9809 47.2874 54.9574 47.2874C54.9148 47.2874 42.9802 40.4735 42.5391 40.1973C42.3083 40.0528 42.4026 40.0505 48.6523 40.0492L55 40.0479V43.6677ZM27.6498 40.0794C27.5916 40.1355 15.079 47.2874 15.0389 47.2874C15.0175 47.2874 15 45.6585 15 43.6677V40.0479H21.3412C24.8287 40.0479 27.6677 40.0621 27.6498 40.0794ZM46.1205 44.944L53.1395 48.9611L46.1274 48.9809C42.2709 48.9919 39.1032 48.9886 39.0883 48.9738C39.0733 48.9589 39.0702 47.1422 39.0813 44.9368L39.1016 40.9269L46.1205 44.944ZM30.9375 44.9457V49H23.8906C20.0148 49 16.8772 48.9706 16.918 48.9346C16.9588 48.8986 20.0156 47.1429 23.7109 45.0331C27.4062 42.9233 30.5439 41.1283 30.6836 41.0443L30.9375 40.8915V44.9457Z" fill="#992CC0"/>
</svg>
