<svg width="71" height="71" viewBox="0 0 71 71" fill="none" xmlns="http://www.w3.org/2000/svg">
<rect width="71" height="71" rx="21" fill="#3C1249"/>
<path fill-rule="evenodd" clip-rule="evenodd" d="M17.4986 23.1649C16.972 23.5184 17.0003 23.1344 17.0002 29.9176L17.0001 36H25.672H34.3438V29.5V23H26.044H17.7441L17.4986 23.1649ZM19.7536 24.2542C20.3989 24.6875 20.3989 25.5974 19.7536 26.0307C19.239 26.3762 18.4909 26.1737 18.2107 25.6131C17.855 24.9017 18.3654 24.0894 19.1681 24.0894C19.4012 24.0894 19.5852 24.1412 19.7536 24.2542ZM24.0895 24.2542C24.7348 24.6875 24.7348 25.5974 24.0895 26.0307C23.5749 26.3762 22.8269 26.1737 22.5466 25.6131C22.1909 24.9017 22.7013 24.0894 23.504 24.0894C23.7371 24.0894 23.9211 24.1412 24.0895 24.2542ZM28.4254 24.2542C29.0707 24.6875 29.0707 25.5974 28.4254 26.0307C27.9108 26.3762 27.1628 26.1737 26.8825 25.6131C26.5269 24.9017 27.0373 24.0894 27.8399 24.0894C28.073 24.0894 28.257 24.1412 28.4254 24.2542ZM32.7613 24.2542C33.4067 24.6875 33.4067 25.5974 32.7613 26.0307C32.2467 26.3762 31.4987 26.1737 31.2185 25.6131C30.8628 24.9017 31.3732 24.0894 32.1758 24.0894C32.409 24.0894 32.593 24.1412 32.7613 24.2542ZM36.5118 26.1955V27.2849H45.2559H54V26.6284C54 25.8194 53.8552 25.4736 53.4238 25.2523C53.1429 25.1083 53.0145 25.1061 44.8252 25.1061H36.5118V26.1955ZM21.9215 26.433C22.5669 26.8663 22.5669 27.7762 21.9215 28.2094C21.4069 28.5549 20.6589 28.3525 20.3787 27.7918C20.023 27.0805 20.5334 26.2682 21.336 26.2682C21.5692 26.2682 21.7531 26.3199 21.9215 26.433ZM26.2574 26.433C26.9028 26.8663 26.9028 27.7762 26.2574 28.2094C25.7428 28.5549 24.9948 28.3525 24.7146 27.7918C24.3589 27.0805 24.8693 26.2682 25.672 26.2682C25.9051 26.2682 26.0891 26.3199 26.2574 26.433ZM30.5934 26.433C31.2387 26.8663 31.2387 27.7762 30.5934 28.2094C30.0788 28.5549 29.3308 28.3525 29.0505 27.7918C28.6948 27.0805 29.2052 26.2682 30.0079 26.2682C30.241 26.2682 30.425 26.3199 30.5934 26.433ZM19.7536 28.6118C20.3989 29.0451 20.3989 29.9549 19.7536 30.3882C19.239 30.7337 18.4909 30.5313 18.2107 29.9706C17.855 29.2592 18.3654 28.4469 19.1681 28.4469C19.4012 28.4469 19.5852 28.4987 19.7536 28.6118ZM24.0895 28.6118C24.7348 29.0451 24.7348 29.9549 24.0895 30.3882C23.5749 30.7337 22.8269 30.5313 22.5466 29.9706C22.1909 29.2592 22.7013 28.4469 23.504 28.4469C23.7371 28.4469 23.9211 28.4987 24.0895 28.6118ZM28.4254 28.6118C29.0707 29.0451 29.0707 29.9549 28.4254 30.3882C27.9108 30.7337 27.1628 30.5313 26.8825 29.9706C26.5269 29.2592 27.0373 28.4469 27.8399 28.4469C28.073 28.4469 28.257 28.4987 28.4254 28.6118ZM32.7613 28.6118C33.4067 29.0451 33.4067 29.9549 32.7613 30.3882C32.2467 30.7337 31.4987 30.5313 31.2185 29.9706C30.8628 29.2592 31.3732 28.4469 32.1758 28.4469C32.409 28.4469 32.593 28.4987 32.7613 28.6118ZM36.5118 30.5531V31.6425H45.2559H54V30.5531V29.4637H45.2559H36.5118V30.5531ZM21.9215 30.7906C22.5669 31.2238 22.5669 32.1337 21.9215 32.567C21.4069 32.9125 20.6589 32.7101 20.3787 32.1494C20.023 31.438 20.5334 30.6257 21.336 30.6257C21.5692 30.6257 21.7531 30.6775 21.9215 30.7906ZM26.2574 30.7906C26.9028 31.2238 26.9028 32.1337 26.2574 32.567C25.7428 32.9125 24.9948 32.7101 24.7146 32.1494C24.3589 31.438 24.8693 30.6257 25.672 30.6257C25.9051 30.6257 26.0891 30.6775 26.2574 30.7906ZM30.5934 30.7906C31.2387 31.2238 31.2387 32.1337 30.5934 32.567C30.0788 32.9125 29.3308 32.7101 29.0505 32.1494C28.6948 31.438 29.2052 30.6257 30.0079 30.6257C30.241 30.6257 30.425 30.6775 30.5934 30.7906ZM19.7536 32.9693C20.3989 33.4026 20.3989 34.3125 19.7536 34.7458C19.239 35.0912 18.4909 34.8888 18.2107 34.3282C17.855 33.6168 18.3654 32.8045 19.1681 32.8045C19.4012 32.8045 19.5852 32.8563 19.7536 32.9693ZM24.0895 32.9693C24.7348 33.4026 24.7348 34.3125 24.0895 34.7458C23.5749 35.0912 22.8269 34.8888 22.5466 34.3282C22.1909 33.6168 22.7013 32.8045 23.504 32.8045C23.7371 32.8045 23.9211 32.8563 24.0895 32.9693ZM28.4254 32.9693C29.0707 33.4026 29.0707 34.3125 28.4254 34.7458C27.9108 35.0912 27.1628 34.8888 26.8825 34.3282C26.5269 33.6168 27.0373 32.8045 27.8399 32.8045C28.073 32.8045 28.257 32.8563 28.4254 32.9693ZM32.7613 32.9693C33.4067 33.4026 33.4067 34.3125 32.7613 34.7458C32.2467 35.0912 31.4987 34.8888 31.2185 34.3282C30.8628 33.6168 31.3732 32.8045 32.1758 32.8045C32.409 32.8045 32.593 32.8563 32.7613 32.9693ZM36.5118 34.9469V36.0726H45.2559H54V34.9469V33.8212H45.2559H36.5118V34.9469ZM17.0001 39.2924V40.4302H35.5H54V39.3408V38.2514H46.4603C42.3134 38.2514 33.9884 38.2296 27.9603 38.203L17.0001 38.1547V39.2924ZM17.0001 43.6983V44.7877H35.5H54V43.6983V42.6089H35.5H17.0001V43.6983ZM17.0002 47.5656C17.0003 48.2667 17.1251 48.5844 17.4986 48.8351L17.7441 49H35.5H53.256L53.5015 48.8351C53.875 48.5844 53.9998 48.2667 53.9999 47.5656L54 46.9665H35.5H17.0001L17.0002 47.5656Z" fill="#992CC0"/>
</svg>
