<svg width="71" height="71" viewBox="0 0 71 71" fill="none" xmlns="http://www.w3.org/2000/svg">
<rect width="71" height="71" rx="21" fill="#3C1249"/>
<path fill-rule="evenodd" clip-rule="evenodd" d="M19.9517 23.0604C20.0524 23.1541 24.5565 26.164 24.596 26.164C24.6152 26.164 24.6309 25.4521 24.6309 24.582V23H22.2588C20.8937 23 19.9143 23.0257 19.9517 23.0604ZM26.6817 24.6243V26.2486L26.8697 26.1276C27.2878 25.8583 31.3006 23.1191 31.3609 23.0617C31.3993 23.0252 30.457 23 29.0538 23H26.6817V24.6243ZM34.3038 23.4886C33.9278 23.7568 32.609 24.6773 31.373 25.5343L29.1258 27.0926L31.5438 27.127C34.2564 27.1656 34.2482 27.1641 34.5366 27.6804C34.7906 28.1351 34.6674 28.7036 34.2476 29.0136C34.0632 29.1499 33.9468 29.1576 31.5816 29.1905L29.1085 29.2249L31.7644 31.0127C34.5887 32.9137 34.6798 32.9922 34.6798 33.5238C34.6798 34.2524 33.8585 34.772 33.2266 34.4432C33.1079 34.3814 31.63 33.4043 29.9425 32.272C28.255 31.1396 26.8324 30.1969 26.7812 30.1772C26.7045 30.1475 26.6846 30.4608 26.6678 31.9664L26.6475 33.7915L26.4106 34.0373C26.0263 34.4361 25.5367 34.4877 25.0683 34.179C24.701 33.9368 24.6678 33.7645 24.6309 31.9042L24.5967 30.1815L21.3154 32.4203L18.0342 34.6591L18.017 41.434C17.9979 48.9972 17.9677 48.5052 18.4715 48.8439L18.7038 49H35.5001H52.2964L52.5287 48.8439C52.6564 48.758 52.8147 48.58 52.8804 48.4484C52.9929 48.2232 53 47.4864 53 36C53 24.5136 52.9929 23.7768 52.8804 23.5516C52.8147 23.42 52.6564 23.242 52.5287 23.1561L52.2964 23L43.6419 23.0006L34.9874 23.0012L34.3038 23.4886ZM18 25.682V27.127H20.1328C21.3598 27.127 22.2381 27.1013 22.2007 27.0667C22.165 27.0334 21.2053 26.3832 20.0679 25.6216L18 24.237V25.682ZM45.2142 27.971C46.0443 28.5289 45.661 29.836 44.6672 29.836C43.874 29.836 43.3722 28.9181 43.8034 28.256C44.0918 27.8132 44.7743 27.6753 45.2142 27.971ZM18 30.6693C18 31.4827 18.0153 32.1481 18.034 32.1481C18.085 32.1481 22.3067 29.2555 22.3067 29.2205C22.3067 29.204 21.3377 29.1905 20.1533 29.1905H18V30.6693ZM41.2215 32.2139C42.0911 32.7475 41.7089 34.1006 40.6886 34.1006C39.6948 34.1006 39.3115 32.7935 40.1416 32.2355C40.4383 32.036 40.916 32.0265 41.2215 32.2139ZM47.8118 32.717C48.6457 33.2774 48.2583 34.582 47.258 34.582C46.2577 34.582 45.8703 33.2774 46.7041 32.717C46.8634 32.6099 47.0375 32.5608 47.258 32.5608C47.4785 32.5608 47.6526 32.6099 47.8118 32.717ZM44.804 36.2937C45.6379 36.8541 45.2505 38.1588 44.2502 38.1588C43.2498 38.1588 42.8625 36.8541 43.6963 36.2937C43.8556 36.1866 44.0296 36.1376 44.2502 36.1376C44.4707 36.1376 44.6447 36.1866 44.804 36.2937ZM32.425 39.7729C33.1563 40.1639 33.155 41.2183 32.4225 41.5885C31.6593 41.9744 30.7719 41.2795 30.9895 40.4665C31.1721 39.7842 31.8414 39.4608 32.425 39.7729ZM43.9837 42.4842C44.8175 43.0446 44.4301 44.3492 43.4298 44.3492C42.4295 44.3492 42.0421 43.0446 42.876 42.4842C43.0353 42.3771 43.2093 42.328 43.4298 42.328C43.6504 42.328 43.8244 42.3771 43.9837 42.4842Z" fill="#992CC0"/>
</svg>
