<svg width="71" height="71" viewBox="0 0 71 71" fill="none" xmlns="http://www.w3.org/2000/svg">
<rect width="71" height="71" rx="21" fill="#3C1249"/>
<path d="M48.88 49.4C48.1547 50.296 47.2693 50.9787 46.224 51.448C45.2 51.9173 44.0693 52.152 42.832 52.152C41.168 52.152 39.664 51.7893 38.32 51.064C36.976 50.36 35.44 49.1013 33.712 47.288C31.6853 47.032 29.872 46.3813 28.272 45.336C26.6933 44.2907 25.456 42.9467 24.56 41.304C23.6853 39.64 23.248 37.8053 23.248 35.8C23.248 33.6027 23.7707 31.6293 24.816 29.88C25.8827 28.1093 27.344 26.7227 29.2 25.72C31.0773 24.7173 33.1787 24.216 35.504 24.216C37.8293 24.216 39.92 24.7173 41.776 25.72C43.632 26.7227 45.0933 28.1093 46.16 29.88C47.2267 31.6293 47.76 33.6027 47.76 35.8C47.76 38.4027 47.024 40.6853 45.552 42.648C44.1013 44.6107 42.1707 45.976 39.76 46.744C40.2933 47.2987 40.8053 47.6933 41.296 47.928C41.808 48.184 42.352 48.312 42.928 48.312C44.3147 48.312 45.5307 47.7573 46.576 46.648L48.88 49.4ZM28.496 35.8C28.496 37.1867 28.7947 38.424 29.392 39.512C30.0107 40.6 30.8533 41.4533 31.92 42.072C32.9867 42.6693 34.1813 42.968 35.504 42.968C36.8267 42.968 38.0213 42.6693 39.088 42.072C40.1547 41.4533 40.9867 40.6 41.584 39.512C42.2027 38.424 42.512 37.1867 42.512 35.8C42.512 34.4133 42.2027 33.176 41.584 32.088C40.9867 31 40.1547 30.1573 39.088 29.56C38.0213 28.9413 36.8267 28.632 35.504 28.632C34.1813 28.632 32.9867 28.9413 31.92 29.56C30.8533 30.1573 30.0107 31 29.392 32.088C28.7947 33.176 28.496 34.4133 28.496 35.8Z" fill="#992CC0"/>
</svg>
