<svg width="518" height="451" viewBox="0 0 518 451" fill="none" xmlns="http://www.w3.org/2000/svg">
<path fill-rule="evenodd" clip-rule="evenodd" d="M282.876 -89.6226L255.547 -62.2464V36.2779V134.803L287.202 166.477L318.858 198.15V208.861V219.571L294.109 244.705L269.36 269.837V283.264V296.691H244.611H219.862V326.35V356.011L237.405 373.599L254.948 391.188L227.045 419.139L199.142 447.09V460.045V473H252.402H305.661L317.707 460.9L329.752 448.801L385.026 448.764L440.3 448.728L479.15 409.115L518 369.502V311.477V253.452L499.007 234.465L480.013 215.478V173.253V131.029L441.451 93.8616C420.242 73.4202 402.889 56.3701 402.889 55.9749C402.889 55.5796 414.026 44.1149 427.638 30.5C441.25 16.8851 452.387 5.22564 452.387 4.59185C452.387 3.95691 440.729 -8.23949 426.482 -22.5124L400.577 -48.4632L413.82 -61.6829L427.062 -74.9014V-95.9513V-117H368.634H310.206L282.876 -89.6226ZM93.8156 98.4883L74.272 118.078H49.7982H25.3244V160.446V202.815L12.6622 215.451L0 228.088V259.231V290.374L23.3204 313.699C36.146 326.528 47.1633 337.023 47.8033 337.023C48.4422 337.023 54.1264 331.838 60.4333 325.5L71.9007 313.977H100.707H129.514L164.328 279.111L199.142 244.246V211.964V179.682L210.078 168.781L221.013 157.88V141.714V125.548L197.693 102.223L174.373 78.8984H143.866H113.359L93.8156 98.4883Z" fill="url(#paint0_radial_131_888)" fill-opacity="0.05" style="mix-blend-mode:overlay"/>
<defs>
<radialGradient id="paint0_radial_131_888" cx="0" cy="0" r="1" gradientUnits="userSpaceOnUse" gradientTransform="translate(275.691 178) rotate(114.954) scale(972.265 853.727)">
<stop stop-color="#F4F4F4"/>
<stop offset="1" stop-opacity="0"/>
</radialGradient>
</defs>
</svg>
