<svg width="415" height="345" viewBox="0 0 415 345" fill="none" xmlns="http://www.w3.org/2000/svg">
<path fill-rule="evenodd" clip-rule="evenodd" d="M-57.753 -3.86236C-59.756 -2.70136 -62.291 -0.124355 -63.385 1.86465C-64.48 3.85264 -72.716 27.6036 -81.688 54.6426L-98 103.807L-89.463 163.444C-82.499 212.097 -80.566 223.578 -78.967 225.781C-77.12 228.325 -24.913 268.404 -12.248 277L-6.384 280.98H24.781H55.946L62.417 287.589C65.976 291.224 70.336 294.824 72.106 295.589C74.323 296.547 79.484 296.98 88.696 296.98H102.068L116.749 319.007C126.61 333.804 132.489 341.681 134.659 343.004C137.59 344.791 139.758 344.973 158.188 344.976C179.47 344.98 181.715 344.592 185.672 340.218C186.651 339.137 190.512 329.078 194.252 317.866L201.053 297.48L210.648 296.979C222.137 296.379 224.454 295.07 228.888 286.669L231.888 280.986L256.396 280.983L280.905 280.98L303.396 303.547C315.767 315.958 327.103 326.758 328.588 327.547C331.785 329.243 337.149 329.401 341.073 327.912C342.621 327.325 351.875 318.905 361.636 309.201C380.541 290.407 383.267 286.469 382.007 279.773C381.666 277.962 375.988 268.38 369.389 258.48C353.607 234.805 353.635 236.646 368.824 221.13C375.114 214.705 380.739 208.188 381.324 206.649C381.966 204.96 382.388 194.566 382.388 180.438V157.026L398.388 124.949L414.388 92.8716V57.2636V21.6556L411.916 17.4376C408.476 11.5676 404.093 9.97964 391.336 9.97964C384.579 9.97964 380.115 10.4816 377.606 11.5246C375.09 12.5696 361.431 25.5056 335.371 51.5246L296.854 89.9796H289.66H282.465L281.476 86.2296C280.933 84.1676 277.8 71.7216 274.515 58.5716C271.159 45.1356 267.729 33.5736 266.683 32.1736C262.583 26.6816 259.531 25.9796 239.74 25.9796H221.56L221.224 14.5496C220.848 1.76264 219.808 -0.71736 213.371 -4.16936C210.061 -5.94436 204.503 -6.01935 77.904 -5.99735L-54.112 -5.97436L-57.753 -3.86236Z" fill="url(#paint0_radial_131_886)" fill-opacity="0.05" style="mix-blend-mode:overlay"/>
<defs>
<radialGradient id="paint0_radial_131_886" cx="0" cy="0" r="1" gradientUnits="userSpaceOnUse" gradientTransform="translate(158.194 169.488) rotate(50.1913) scale(642.438 937.893)">
<stop stop-color="#F4ECF7"/>
<stop offset="1" stop-color="#2F0E39" stop-opacity="0"/>
</radialGradient>
</defs>
</svg>
