<svg width="20" height="20" viewBox="0 0 20 20" fill="none" xmlns="http://www.w3.org/2000/svg">
<path fill-rule="evenodd" clip-rule="evenodd" d="M10 8.25L1.25 4.75L5.625 3L10 1.25L18.75 4.75L14.375 6.5L10 8.25Z" stroke="#F9F9F9" stroke-width="1.5" stroke-linecap="round" stroke-linejoin="round"/>
<path d="M9.72146 19.4464C10.106 19.6002 10.5425 19.4131 10.6964 19.0285C10.8502 18.644 10.6631 18.2075 10.2785 18.0536L9.72146 19.4464ZM1.25 15.25H0.5C0.5 15.5567 0.686713 15.8325 0.971457 15.9464L1.25 15.25ZM2 4.75C2 4.33579 1.66421 4 1.25 4C0.835786 4 0.5 4.33579 0.5 4.75H2ZM9.72146 18.0536C9.33687 18.2075 9.14981 18.644 9.30364 19.0285C9.45748 19.4131 9.89396 19.6002 10.2785 19.4464L9.72146 18.0536ZM18.75 15.25L19.0285 15.9464C19.3133 15.8325 19.5 15.5567 19.5 15.25H18.75ZM19.5 4.75C19.5 4.33579 19.1642 4 18.75 4C18.3358 4 18 4.33579 18 4.75H19.5ZM9.25 18.75C9.25 19.1642 9.58579 19.5 10 19.5C10.4142 19.5 10.75 19.1642 10.75 18.75H9.25ZM10.75 8.25C10.75 7.83579 10.4142 7.5 10 7.5C9.58579 7.5 9.25 7.83579 9.25 8.25H10.75ZM10.2785 18.0536L1.52854 14.5536L0.971457 15.9464L9.72146 19.4464L10.2785 18.0536ZM2 15.25V4.75H0.5V15.25H2ZM10.2785 19.4464L19.0285 15.9464L18.4715 14.5536L9.72146 18.0536L10.2785 19.4464ZM19.5 15.25V4.75H18V15.25H19.5ZM10.75 18.75V8.25H9.25V18.75H10.75Z" fill="#F9F9F9"/>
</svg>
