<svg width="26" height="20" viewBox="0 0 26 20" fill="none" xmlns="http://www.w3.org/2000/svg">
<path fill-rule="evenodd" clip-rule="evenodd" d="M15.9688 4.21875C15.9688 5.85835 14.6396 7.1875 13 7.1875C11.3604 7.1875 10.0312 5.85835 10.0312 4.21875C10.0312 2.57915 11.3604 1.25 13 1.25C14.6396 1.25 15.9688 2.57915 15.9688 4.21875Z" stroke="#F9F9F9" stroke-width="2" stroke-linecap="round" stroke-linejoin="round"/>
<path fill-rule="evenodd" clip-rule="evenodd" d="M18.9375 14.7187C18.9375 16.9687 16.2788 18.8025 13 18.8025C9.72125 18.8025 7.0625 16.9737 7.0625 14.7187C7.0625 12.4637 9.72125 10.6362 13 10.6362C16.2788 10.6362 18.9375 12.4637 18.9375 14.7187Z" stroke="#F9F9F9" stroke-width="2" stroke-linecap="round" stroke-linejoin="round"/>
<path fill-rule="evenodd" clip-rule="evenodd" d="M22.25 6.94147C22.2627 7.66463 21.8369 8.32367 21.1724 8.60924C20.5079 8.89482 19.7366 8.75023 19.2207 8.24335C18.7048 7.73647 18.5466 6.96793 18.8203 6.29848C19.0941 5.62903 19.7455 5.19158 20.4688 5.19147C21.4438 5.18315 22.2411 5.96647 22.25 6.94147V6.94147Z" stroke="#F9F9F9" stroke-width="2" stroke-linecap="round" stroke-linejoin="round"/>
<path fill-rule="evenodd" clip-rule="evenodd" d="M3.75003 6.94147C3.73734 7.66463 4.16319 8.32367 4.82769 8.60924C5.4922 8.89482 6.26341 8.75023 6.77935 8.24335C7.29528 7.73647 7.45349 6.96793 7.17972 6.29848C6.90595 5.62903 6.25455 5.19158 5.53128 5.19147C4.55628 5.18315 3.75897 5.96647 3.75003 6.94147Z" stroke="#F9F9F9" stroke-width="2" stroke-linecap="round" stroke-linejoin="round"/>
<path d="M21.4017 16.6401C20.8516 16.5909 20.3657 16.9969 20.3165 17.5469C20.2672 18.097 20.6732 18.5829 21.2233 18.6321L21.4017 16.6401ZM24.875 14.7186L25.8691 14.8275C25.877 14.755 25.877 14.6819 25.869 14.6093L24.875 14.7186ZM21.2233 10.8064C20.6732 10.8556 20.2672 11.3415 20.3165 11.8916C20.3658 12.4417 20.8516 12.8477 21.4017 12.7984L21.2233 10.8064ZM4.77669 18.6321C5.32677 18.5829 5.73277 18.097 5.68352 17.5469C5.63426 16.9969 5.1484 16.5909 4.59831 16.6401L4.77669 18.6321ZM1.125 14.7186L0.130989 14.6093C0.123018 14.6819 0.123004 14.755 0.130947 14.8275L1.125 14.7186ZM4.59827 12.7984C5.14836 12.8477 5.63423 12.4417 5.68351 11.8916C5.73279 11.3415 5.32681 10.8556 4.77673 10.8064L4.59827 12.7984ZM21.2233 18.6321C23.5495 18.8404 25.6147 17.1491 25.8691 14.8275L23.8809 14.6097C23.7452 15.8487 22.6431 16.7513 21.4017 16.6401L21.2233 18.6321ZM25.869 14.6093C25.6139 12.2884 23.5489 10.598 21.2233 10.8064L21.4017 12.7984C22.6428 12.6872 23.7448 13.5893 23.881 14.8279L25.869 14.6093ZM4.59831 16.6401C3.35691 16.7513 2.25478 15.8487 2.11905 14.6097L0.130947 14.8275C0.385283 17.1491 2.4505 18.8404 4.77669 18.6321L4.59831 16.6401ZM2.11901 14.8279C2.25518 13.5893 3.35717 12.6872 4.59827 12.7984L4.77673 10.8064C2.45111 10.598 0.386141 12.2884 0.130989 14.6093L2.11901 14.8279Z" fill="#F9F9F9"/>
</svg>
