<svg xmlns="http://www.w3.org/2000/svg" xmlns:xlink="http://www.w3.org/1999/xlink" viewBox="0 0 201.36 197.59"><defs><style>.cls-1,.cls-12,.cls-25,.cls-5{fill:#fff;}.cls-2{isolation:isolate;}.cls-3{fill:#49326e;}.cls-4{fill:url(#linear-gradient);}.cls-12,.cls-25,.cls-5,.cls-7{mix-blend-mode:soft-light;}.cls-5{opacity:0.26;}.cls-6{fill:url(#linear-gradient-2);}.cls-8{fill:url(#linear-gradient-3);}.cls-9{fill:url(#linear-gradient-4);}.cls-10{fill:url(#linear-gradient-5);}.cls-11{fill:url(#linear-gradient-6);}.cls-12{opacity:0.8;}.cls-13{fill:url(#linear-gradient-7);}.cls-14{fill:url(#linear-gradient-8);}.cls-15{fill:url(#linear-gradient-9);}.cls-16{fill:url(#linear-gradient-10);}.cls-17{fill:url(#linear-gradient-11);}.cls-18{fill:url(#linear-gradient-12);}.cls-19{fill:url(#linear-gradient-13);}.cls-20{fill:url(#linear-gradient-14);}.cls-21{fill:url(#linear-gradient-15);}.cls-22{fill:url(#linear-gradient-16);}.cls-23{fill:url(#linear-gradient-17);}.cls-24{fill:url(#linear-gradient-18);}.cls-25{opacity:0.7;}.cls-26{fill:url(#linear-gradient-19);}.cls-27{opacity:0.15;}.cls-28,.cls-29,.cls-30,.cls-31,.cls-40,.cls-46,.cls-61{mix-blend-mode:multiply;}.cls-29,.cls-30,.cls-31,.cls-40,.cls-46,.cls-61{opacity:0.3;}.cls-29{fill:url(#linear-gradient-20);}.cls-30{fill:url(#linear-gradient-21);}.cls-31{fill:url(#linear-gradient-22);}.cls-32,.cls-46{fill:#d8dee8;}.cls-33{fill:url(#linear-gradient-23);}.cls-34{fill:url(#linear-gradient-24);}.cls-35{fill:url(#linear-gradient-25);}.cls-36{fill:url(#linear-gradient-26);}.cls-37{fill:url(#linear-gradient-27);}.cls-38{clip-path:url(#clip-path);}.cls-39{fill:url(#linear-gradient-28);}.cls-40{fill:url(#linear-gradient-29);}.cls-41{fill:url(#linear-gradient-30);}.cls-42{fill:url(#linear-gradient-31);}.cls-43{fill:url(#linear-gradient-32);}.cls-44{fill:url(#linear-gradient-33);}.cls-45{fill:url(#linear-gradient-34);}.cls-47{fill:url(#linear-gradient-35);}.cls-48{fill:url(#linear-gradient-36);}.cls-49{fill:url(#linear-gradient-37);}.cls-50{fill:url(#linear-gradient-38);}.cls-51{fill:url(#linear-gradient-39);}.cls-52{fill:url(#linear-gradient-40);}.cls-53{clip-path:url(#clip-path-2);}.cls-54{fill:url(#linear-gradient-41);}.cls-55{fill:url(#linear-gradient-42);}.cls-56{fill:url(#linear-gradient-43);}.cls-57{fill:url(#linear-gradient-44);}.cls-58{fill:url(#linear-gradient-45);}.cls-59{fill:url(#linear-gradient-46);}.cls-60{fill:url(#linear-gradient-47);}.cls-62{fill:url(#linear-gradient-48);}.cls-63{fill:url(#linear-gradient-49);}.cls-64{fill:url(#linear-gradient-50);}.cls-65{fill:url(#linear-gradient-51);}.cls-66{fill:url(#linear-gradient-52);}.cls-67{fill:url(#linear-gradient-53);}.cls-68{fill:url(#linear-gradient-54);}.cls-69{fill:url(#linear-gradient-55);}.cls-70{clip-path:url(#clip-path-3);}.cls-71{fill:url(#linear-gradient-56);}.cls-72{fill:url(#linear-gradient-57);}.cls-73{fill:url(#linear-gradient-58);}.cls-74{fill:url(#linear-gradient-59);}.cls-75{fill:url(#linear-gradient-60);}.cls-76{fill:url(#linear-gradient-61);}.cls-77{fill:url(#linear-gradient-62);}.cls-78{fill:url(#linear-gradient-63);}</style><linearGradient id="linear-gradient" y1="108.02" x2="67.16" y2="108.02" gradientUnits="userSpaceOnUse"><stop offset="0" stop-color="#fd8246"/><stop offset="1" stop-color="#f7941d"/></linearGradient><linearGradient id="linear-gradient-2" x1="-758.02" y1="517.25" x2="-745.96" y2="590.36" gradientTransform="matrix(0.91, -0.41, 0.41, 0.92, 493.7, -657.64)" gradientUnits="userSpaceOnUse"><stop offset="0" stop-color="#aa80f9"/><stop offset="1" stop-color="#6165d7"/></linearGradient><linearGradient id="linear-gradient-3" x1="50.29" y1="179.7" x2="50.69" y2="179.7" gradientUnits="userSpaceOnUse"><stop offset="0" stop-color="#ffc444"/><stop offset="1" stop-color="#fd8246"/></linearGradient><linearGradient id="linear-gradient-4" x1="50.4" y1="179.67" x2="51.51" y2="179.67" xlink:href="#linear-gradient-3"/><linearGradient id="linear-gradient-5" x1="45.48" y1="178.09" x2="48.89" y2="178.09" xlink:href="#linear-gradient-3"/><linearGradient id="linear-gradient-6" x1="50.09" y1="179.79" x2="50.38" y2="179.79" xlink:href="#linear-gradient-3"/><linearGradient id="linear-gradient-7" x1="49.68" y1="179.68" x2="50.11" y2="179.68" xlink:href="#linear-gradient-3"/><linearGradient id="linear-gradient-8" x1="49.92" y1="179.76" x2="50.31" y2="179.76" xlink:href="#linear-gradient-3"/><linearGradient id="linear-gradient-9" x1="50" y1="179.82" x2="50.1" y2="179.82" xlink:href="#linear-gradient-3"/><linearGradient id="linear-gradient-10" x1="48.89" y1="179.48" x2="50.29" y2="179.48" xlink:href="#linear-gradient-3"/><linearGradient id="linear-gradient-11" x1="50.31" y1="179.75" x2="50.44" y2="179.75" xlink:href="#linear-gradient-3"/><linearGradient id="linear-gradient-12" x1="50.38" y1="179.77" x2="50.4" y2="179.77" xlink:href="#linear-gradient-3"/><linearGradient id="linear-gradient-13" x1="50.1" y1="179.82" x2="50.39" y2="179.82" xlink:href="#linear-gradient-3"/><linearGradient id="linear-gradient-14" x1="50.11" y1="179.73" x2="50.4" y2="179.73" xlink:href="#linear-gradient-3"/><linearGradient id="linear-gradient-15" x1="-99.62" y1="32.26" x2="-115.27" y2="145.99" gradientTransform="translate(231.19 -82.56) rotate(-8.99)" xlink:href="#linear-gradient-2"/><linearGradient id="linear-gradient-16" x1="124.76" y1="123.9" x2="200.49" y2="123.9" xlink:href="#linear-gradient"/><linearGradient id="linear-gradient-17" x1="29.24" y1="105.63" x2="169.58" y2="105.63" gradientUnits="userSpaceOnUse"><stop offset="0" stop-color="#40447e"/><stop offset="1" stop-color="#69479d"/></linearGradient><linearGradient id="linear-gradient-18" x1="149.86" y1="21.65" x2="3.65" y2="258.52" gradientUnits="userSpaceOnUse"><stop offset="0" stop-color="#e38ddd"/><stop offset="1" stop-color="#9571f6"/></linearGradient><linearGradient id="linear-gradient-19" x1="31.98" y1="25.36" x2="171.57" y2="25.36" xlink:href="#linear-gradient-17"/><linearGradient id="linear-gradient-20" x1="43.8" y1="65.72" x2="164.94" y2="65.72" xlink:href="#linear-gradient-18"/><linearGradient id="linear-gradient-21" x1="43.8" y1="163.96" x2="164.94" y2="163.96" xlink:href="#linear-gradient-18"/><linearGradient id="linear-gradient-22" x1="43.8" y1="114.9" x2="164.94" y2="114.9" xlink:href="#linear-gradient-18"/><linearGradient id="linear-gradient-23" x1="85.38" y1="62.94" x2="100.99" y2="62.94" xlink:href="#linear-gradient-3"/><linearGradient id="linear-gradient-24" x1="102.99" y1="62.6" x2="117.85" y2="62.6" xlink:href="#linear-gradient-3"/><linearGradient id="linear-gradient-25" x1="119.75" y1="62.26" x2="133.91" y2="62.26" xlink:href="#linear-gradient-3"/><linearGradient id="linear-gradient-26" x1="86.82" y1="50.48" x2="140.91" y2="50.48" xlink:href="#linear-gradient"/><linearGradient id="linear-gradient-27" x1="55.26" y1="60.96" x2="81.7" y2="60.96" xlink:href="#linear-gradient"/><clipPath id="clip-path"><path class="cls-1" d="M80.65,60.92A12.15,12.15,0,1,1,68.6,48.77,12.22,12.22,0,0,1,80.65,60.92Z"/></clipPath><linearGradient id="linear-gradient-28" x1="57" y1="62.25" x2="80.35" y2="62.25" xlink:href="#linear-gradient-17"/><linearGradient id="linear-gradient-29" x1="57" y1="62.39" x2="80.35" y2="62.39" xlink:href="#linear-gradient-17"/><linearGradient id="linear-gradient-30" x1="59.61" y1="69.58" x2="77.66" y2="69.58" xlink:href="#linear-gradient"/><linearGradient id="linear-gradient-31" x1="65.34" y1="65.29" x2="72.2" y2="65.29" xlink:href="#linear-gradient-3"/><linearGradient id="linear-gradient-32" x1="66.11" y1="59.56" x2="71.12" y2="59.56" xlink:href="#linear-gradient-3"/><linearGradient id="linear-gradient-33" x1="65.53" y1="59.97" x2="66.76" y2="59.97" xlink:href="#linear-gradient-3"/><linearGradient id="linear-gradient-34" x1="70.31" y1="59.96" x2="71.53" y2="59.96" xlink:href="#linear-gradient-3"/><linearGradient id="linear-gradient-35" x1="85.38" y1="161.74" x2="100.99" y2="161.74" xlink:href="#linear-gradient-3"/><linearGradient id="linear-gradient-36" x1="102.99" y1="160.17" x2="117.85" y2="160.17" xlink:href="#linear-gradient-3"/><linearGradient id="linear-gradient-37" x1="119.75" y1="158.68" x2="133.91" y2="158.68" xlink:href="#linear-gradient-3"/><linearGradient id="linear-gradient-38" x1="135.72" y1="157.26" x2="149.23" y2="157.26" xlink:href="#linear-gradient-3"/><linearGradient id="linear-gradient-39" x1="86.82" y1="147.99" x2="140.91" y2="147.99" xlink:href="#linear-gradient"/><linearGradient id="linear-gradient-40" x1="55.26" y1="161.33" x2="81.7" y2="161.33" xlink:href="#linear-gradient"/><clipPath id="clip-path-2"><path class="cls-1" d="M80.65,160.44A13.33,13.33,0,0,1,68.6,173.51a11.15,11.15,0,0,1-12.25-11.29A13.29,13.29,0,0,1,68.6,149.14,11.16,11.16,0,0,1,80.65,160.44Z"/></clipPath><linearGradient id="linear-gradient-41" x1="68.92" y1="175.43" x2="68.51" y2="169.86" gradientTransform="matrix(1, 0, 0, 1, 0, 0)" xlink:href="#linear-gradient-2"/><linearGradient id="linear-gradient-42" x1="68.56" y1="167.27" x2="68.47" y2="161.61" gradientTransform="matrix(1, 0, 0, 1, 0, 0)" xlink:href="#linear-gradient-2"/><linearGradient id="linear-gradient-43" x1="68.61" y1="167.77" x2="68.58" y2="163.15" gradientUnits="userSpaceOnUse"><stop offset="0" stop-color="#ab316d"/><stop offset="1" stop-color="#792d3d"/></linearGradient><linearGradient id="linear-gradient-44" x1="68.22" y1="161.21" x2="68.98" y2="151.99" xlink:href="#linear-gradient-43"/><linearGradient id="linear-gradient-45" x1="65.55" y1="161.12" x2="66.29" y2="152.17" xlink:href="#linear-gradient-43"/><linearGradient id="linear-gradient-46" x1="71.26" y1="161.24" x2="72.03" y2="151.99" xlink:href="#linear-gradient-43"/><linearGradient id="linear-gradient-47" x1="68.01" y1="156.85" x2="70.09" y2="150.4" gradientUnits="userSpaceOnUse"><stop offset="0" stop-color="#311944"/><stop offset="1" stop-color="#6b3976"/></linearGradient><linearGradient id="linear-gradient-48" x1="68.02" y1="156.8" x2="70.14" y2="150.23" xlink:href="#linear-gradient-47"/><linearGradient id="linear-gradient-49" x1="85.38" y1="112.19" x2="100.99" y2="112.19" xlink:href="#linear-gradient-3"/><linearGradient id="linear-gradient-50" x1="102.99" y1="111.24" x2="117.85" y2="111.24" xlink:href="#linear-gradient-3"/><linearGradient id="linear-gradient-51" x1="119.75" y1="110.33" x2="133.91" y2="110.33" xlink:href="#linear-gradient-3"/><linearGradient id="linear-gradient-52" x1="135.72" y1="109.46" x2="149.23" y2="109.46" xlink:href="#linear-gradient-3"/><linearGradient id="linear-gradient-53" x1="150.96" y1="108.64" x2="163.86" y2="108.64" xlink:href="#linear-gradient-3"/><linearGradient id="linear-gradient-54" x1="86.82" y1="98.92" x2="140.91" y2="98.92" xlink:href="#linear-gradient"/><linearGradient id="linear-gradient-55" x1="55.26" y1="110.99" x2="81.7" y2="110.99" xlink:href="#linear-gradient"/><clipPath id="clip-path-3"><path class="cls-1" d="M80.65,110.53A12.75,12.75,0,0,1,68.6,123.17a11.62,11.62,0,0,1-12.25-11.72A12.74,12.74,0,0,1,68.6,98.8,11.64,11.64,0,0,1,80.65,110.53Z"/></clipPath><linearGradient id="linear-gradient-56" x1="57.39" y1="119.26" x2="80.48" y2="119.26" xlink:href="#linear-gradient"/><linearGradient id="linear-gradient-57" x1="68.71" y1="123.41" x2="68.93" y2="111.39" gradientUnits="userSpaceOnUse"><stop offset="0" stop-color="#311944"/><stop offset="0.56" stop-color="#6f2b60"/><stop offset="1" stop-color="#a03976"/></linearGradient><linearGradient id="linear-gradient-58" x1="67.03" y1="114.01" x2="70.87" y2="114.01" xlink:href="#linear-gradient-3"/><linearGradient id="linear-gradient-59" x1="65.91" y1="107.97" x2="71.43" y2="107.97" xlink:href="#linear-gradient-3"/><linearGradient id="linear-gradient-60" x1="65.05" y1="109.21" x2="66.23" y2="109.21" xlink:href="#linear-gradient-3"/><linearGradient id="linear-gradient-61" x1="70.98" y1="108.84" x2="72" y2="108.84" xlink:href="#linear-gradient-3"/><linearGradient id="linear-gradient-62" x1="63.72" y1="107.24" x2="72.65" y2="107.24" gradientUnits="userSpaceOnUse"><stop offset="0" stop-color="#444b8c"/><stop offset="1" stop-color="#3e4177"/></linearGradient><linearGradient id="linear-gradient-63" x1="67.75" y1="110.48" x2="69.6" y2="110.48" xlink:href="#linear-gradient-3"/></defs><g class="cls-2"><g id="Layer_2" data-name="Layer 2"><g id="Layer_1-2" data-name="Layer 1"><path class="cls-3" d="M198.51,87.18c-5.25-34.39-26.79-76.63-69.35-81.05,0,0-32.3-3.93-64.15,2-18.9,3.54-35.48,14.06-46,29.18A63.34,63.34,0,0,0,9.3,88.48c2.77,11.42,4.63,23.24,4.12,35-.89,20.42-.38,39.48,19.44,51.66,17.7,10.88,40,20.47,61.21,22.15a136.54,136.54,0,0,0,44.55-4.47C209.54,173.63,203.76,121.56,198.51,87.18Z"/><path class="cls-4" d="M53.55,159.06a77.4,77.4,0,0,0,13.07-33.88,60,60,0,0,0-3.05-28.8c-.93-2.44-4.77-12.54-8.84-12.19-1.7.15-3.13,2.09-3.71,3.64-1.86,5,3.94,9.39,1.83,13.49-.67,1.29-2,2.41-3,2.15-.42-.11-1.7-.78-1.64-8.52.08-10.44,2.52-12.36,2-19.37-.22-2.85-.87-11.21-5.81-13.18-1.56-.63-4-.81-5.56.52-2.56,2.25-.47,7.14.89,16.25s1.4,18.67.42,18.83c-.78.13-2.46-5.5-3.38-9.72-1.66-7.57-.68-9.6-1.74-14.75C33.26,64.85,27.51,56.36,24.52,57s-3.09,10.09-3.1,10.75c0,4.73,1.1,6.92,4.16,18,2.72,9.87,2.76,11.53,2.21,11.78-.73.35-2.54-1.87-3.59-3.47-2.85-4.36-2.82-8.4-3.31-12.06-1-7.64-4.86-17.77-9.3-18.15C9.2,63.68,7,66.33,6,68.22c-1,2.08-1.4,5,.81,10.93C11.1,90.68,17.25,92.77,19.11,102.6c.56,3,.77,6.83-.18,7.13s-3.43-4.06-5.7-8.33c-4.72-8.91-5.29-12.5-7.1-12.59C3.8,88.71,1,94.49.22,99.9c-.6,4.12-.74,12.92,10.42,27.29C23.61,143.92,40.52,153.56,53.55,159.06Z"/><path class="cls-5" d="M18.46,88c5.16,10,3.58,12.45,8,22.83,3.74,8.85,6.81,11.61,12.77,20.87A174.84,174.84,0,0,1,53.42,158.8c-22.17-11.26-27.73-20.12-28-26.53-.12-2.59.36-9.78-4.22-13.77-2.7-2.35-4.36-1.17-8.08-3.83-6.27-4.5-7.45-12.11-7.59-13.1-.51-3.65.4-5,.46-7.78a13.33,13.33,0,0,0-.75-4.72,1.79,1.79,0,0,1,.94-.26c1.81.09,2.38,3.68,7.1,12.59,2.27,4.27,4.62,8.67,5.7,8.33s.74-4.16.18-7.13c-1.86-9.83-8-11.92-12.29-23.45C4.61,73.19,5,70.3,6,68.22c.86-1.73,2.81-4.08,5-4.32a24.87,24.87,0,0,0-.08,8.5C11.9,78.35,14.6,80.48,18.46,88Z"/><path class="cls-5" d="M45.9,78.69c.35,5.26-.8,6.5-1.43,13.1-.8,8.46-1.2,12.69.89,17,2.94,6.09,7.87,6.49,8.93,12.7.46,2.71-.38,3.21.15,6.72.78,5.26,3.26,8.34,4.23,10.24,1.69,3.33,1.8,9.15-4.91,20.1,3.12-18.77-.77-28.27-5.62-33.5-4.38-4.72-8.22-4.53-12.11-10.78-5.18-8.31-1-12.87-4.83-28.69-2.32-9.6-4.47-10.82-5.46-19.23a49.54,49.54,0,0,1-.21-9.25c3.14,1,7.91,8.64,9.53,16.42,1.06,5.15.08,7.18,1.74,14.75.92,4.22,2.6,9.85,3.38,9.72,1-.16,1-9.6-.42-18.83s-3.45-14-.89-16.25a5.25,5.25,0,0,1,4.54-.83,48,48,0,0,0,.47,6C44.6,73.08,45.59,74.17,45.9,78.69Z"/><path class="cls-6" d="M50.44,179.75c-3,1.52-11.63,5.38-22,2.85-7.2-1.76-16.4-6.87-19.05-14.95-.78-2.35-1.65-7-.11-7.84,1.09-.62,3,.78,3.35,1.05,3.14,2.33,2.29,5.51,5.46,8.16,1.23,1,3,1.93,3.38,1.53.84-.9-6.83-6.94-11.18-17-3.55-8.26-5-19.47-.74-22.44.16-.11,1.85-1.25,3.09-.63,2.62,1.31-.46,8.55,3.62,14.67,1,1.44,2.38,2.92,2.88,2.66,1.06-.56-3.26-8.39-5.11-20.07-1.61-10.21.67-14.49,2.32-16.54.44-.55,2.53-3,3.86-2.53s1.22,3.44,1.2,5.78c-.06,5.56-1.55,7.21-.86,10.65.59,3,2.2,5.49,2.71,5.35s-.74-4.36-.84-10.33c0-3-.22-14,5.59-17.26,1.25-.7,3.22-1.29,4.07-.5s.08,2.7-1.62,7.8a67.72,67.72,0,0,0-3,11.85c-.53,3.65-.3,5,.4,5.39s1.48-.13,2-.61c2.72-2.37-1.11-7.61,1.33-13.62.73-1.81,2.36-4.5,3.87-4.31,2.61.32,3.52,9.13,3.62,10.15.41,4.2,1,10.17-1.87,16.41-1.46,3.18-3.66,6.09-2.46,7.93a2,2,0,0,0,1.65,1c1.56-.18,1.59-3.71,4.21-8.27,1.09-1.9,2.27-4,3.54-3.83,1.43.16,2.49,3.06,2.79,5.3.87,6.32-3.61,11.7-2.35,12.65a4.68,4.68,0,0,0,1.49,0c2.07-.16,2.56-.48,3.24-.33,1.58.32,2.35,2.71,2.43,3,1.28,4.1-3.93,6.86-6.54,15.55-1.36,4.48-.74,6.29-.34,7.12C45.88,178.39,49.24,179.44,50.44,179.75Z"/><g class="cls-7"><path class="cls-8" d="M50.69,179.67l-.4,0,.11,0Z"/><path class="cls-9" d="M50.44,179.75l0,0,1.11-.19-.82.09-.29.07Z"/><path class="cls-10" d="M45.48,176.94a9.15,9.15,0,0,0,3.41,2.3A16.81,16.81,0,0,1,45.48,176.94Z"/><path class="cls-11" d="M50.1,179.81l.28,0h-.07l-.22.05Z"/><path class="cls-12" d="M10.43,140.62c.26,4.79,3.3,6.06,7.1,13.55,2.3,4.52,1.57,4.81,3.33,8.35,1,1.95,7.32,14.17,20.23,17a25.59,25.59,0,0,0,8.91.32l.09,0-.17-.08c-5.22.36-7.93-1-9.45-2.51-2-1.95-1.51-3.88-4.52-7.14s-4.69-3-6.28-5.42c-3-4.53,1.15-8-1.15-13.91-2-5.29-6.12-4.73-7.62-10.22-1-3.61.71-4.18-.19-9.08-1-5.25-3.05-5.39-3.38-9.67-.31-3.92,1.35-4.86,1.52-9.72a22.67,22.67,0,0,0-.11-3.14,10.14,10.14,0,0,0-2.41,2.25c-1.65,2-3.93,6.33-2.32,16.54,1.85,11.68,6.17,19.51,5.11,20.07-.5.26-1.92-1.22-2.88-2.66-4.08-6.12-1-13.36-3.62-14.67a2.48,2.48,0,0,0-1.91,0,21.61,21.61,0,0,1,.35,2.31C11.42,136.81,10.26,137.58,10.43,140.62Z"/><path class="cls-13" d="M50.11,179.72l-.43-.1.24.11Z"/><path class="cls-14" d="M50.09,179.81l.22-.05-.2,0h-.19Z"/><path class="cls-15" d="M50,179.83l.1,0h0Z"/><path class="cls-12" d="M50,179.83a51.07,51.07,0,0,1-12.35,1.22c-5.43-.15-11.3-.39-14.84-4.3A31.51,31.51,0,0,0,20,173.31c-3.4-3.19-5.66-2.84-7.48-5.43-1.24-1.76-.64-2.58-1.63-5.74a22.38,22.38,0,0,0-1-2.49,1.32,1.32,0,0,0-.61.16c-1.54.89-.67,5.49.11,7.84,2.65,8.08,11.85,13.19,19.05,14.95a32.32,32.32,0,0,0,21.8-2.74l-.12-.05Z"/><path class="cls-12" d="M43.76,132.21c-1.27-.13-2.45,1.93-3.54,3.83-2.62,4.56-2.65,8.09-4.21,8.27a2,2,0,0,1-1.65-1c-1.2-1.84,1-4.75,2.46-7.93,2.86-6.24,2.28-12.21,1.87-16.41-.1-1-1-9.83-3.62-10.15-1.51-.19-3.14,2.5-3.87,4.31-2.44,6,1.39,11.25-1.33,13.62-.55.48-1.44.91-2,.61s-.93-1.74-.4-5.39a67.72,67.72,0,0,1,3-11.85c1.7-5.1,2.49-7,1.62-7.8a2.35,2.35,0,0,0-2.08-.27,9.45,9.45,0,0,1-.25,2.22c-.64,2.71-2,3.06-2.78,6.09-.66,2.7.26,3.16-.25,6.59s-1.54,3.39-1.88,6.09c-.47,3.78,1.46,4.32,1.85,9.28.35,4.59-1.21,5.31-.2,8.28s2.84,2.67,4.88,6.11c2.78,4.69.19,6.7,2.95,11.22,2.05,3.37,4.4,3.76,4.92,7,.3,1.91-.4,2.43-.06,4.58a11.64,11.64,0,0,0,3.32,6.1,14.28,14.28,0,0,0,7.2,4l-.79-.38a9.15,9.15,0,0,1-3.41-2.3,10.89,10.89,0,0,1-2.73-3.56,12.68,12.68,0,0,1-1.23-4.85c0-4.35,3.07-6,2.19-8.52s-4.45-2.39-4.68-4.52c-.17-1.55,1.71-1.88,2.57-4.38,1-2.8-.89-3.89-.42-7.22s2.44-3.61,3.32-6.88a10.22,10.22,0,0,0,.18-4.3A1.63,1.63,0,0,0,43.76,132.21Z"/><path class="cls-16" d="M50.11,179.72h.18a13.48,13.48,0,0,1-1.4-.47l.79.38Z"/><path class="cls-17" d="M50.4,179.74l-.09,0h.09l0,0Z"/><path class="cls-18" d="M50.39,179.77h0Z"/><path class="cls-19" d="M50.1,179.81l.12.05.17-.09h0Z"/><path class="cls-20" d="M50.31,179.76l.09,0-.11,0h-.18Z"/></g><path class="cls-21" d="M82.19,131.45c18.16-14.93,23.43-28.49,24.9-38.08,1.13-7.37,3.3-33.79-2.06-54.1-.72-2.72-2.9-10.36.67-13.71,1.59-1.49,4.47-2.29,6.51-1.24,3.27,1.7,1.82,6.87,4,21.11.68,4.56,1.75,10.18,5.43,16,.27.42,2.7,4.24,3.39,3.91.93-.44-2.14-7.83-5.72-20-4.15-14.11-4.94-20.88-2.58-27.42.54-1.49,1.89-5.22,3.84-5.28,2.84-.09,5.84,7.63,6.94,13.72,1.06,5.86,0,8.35,1.54,17.25,1.09,6.33,2,7.19,2.65,7.28,1.47.18,3.48-3.38,4.3-6.51,1.86-7.17-2.67-11.52-7.44-25.46-3-8.76-4.84-14.31-2.2-17.15s8.68-1.9,12.6,0c6.78,3.37,9.09,10.81,11.42,18.28,1.72,5.54,5.7,18.35,4.1,27.54-.36,2.07-.1,4.79.43,4.88.88.15,3.5-6.84,4.06-14.06a42.42,42.42,0,0,0-3.59-20.15C151,8.79,145.15,5.49,146.58,2.84c1.29-2.37,7.4-2.38,11.94-.26,8.09,3.77,10.32,13.93,12.23,22.67,1.46,6.68,6.14,28-2.75,38.57-1.18,1.41-4.58,5-3.54,7.71A4,4,0,0,0,168.22,74c5.43-.61,7.42-19.47,7.67-22,1.11-11.24-4-17.34-.76-20.19,2.21-1.94,6.74-1.46,9.63.51,8.64,5.88,8.29,28.92-2.18,44-11.31,16.31-32.94,21.15-32,23.55.4,1,4.55.32,6.3,0,2-.35,21.63-4.08,29.95-21.19,3.71-7.64,3.18-13.85,5.69-14.1s6.05,5.64,6.54,10.54c1.57,15.64-27,30.36-38.72,36.39C144.9,119.49,119,129.86,82.19,131.45Z"/><path class="cls-5" d="M142.06,19.19c4.06,7.72,0,11.47,1.91,24.88,1.6,11,4.67,10.75,5.06,17.88.56,10.28-5.43,17.86-15.85,31-6.92,8.75-15.27,19.12-30.09,28.19a101.8,101.8,0,0,1-19,9.06l-1.08.61a150.29,150.29,0,0,0,26.14-7.76c7.44-3,11.12-5.23,14.34-7.93,5.24-4.39,5.41-6.76,13.59-17,8.81-11,9.66-9.58,12.46-15,4.72-9.07,1.82-12.18,7-19.6,4.12-5.85,7.32-5.9,9.2-11.2,1.25-3.54.53-5.52-.61-14.12-2.5-18.75-.62-20.73-3.89-24.57-3.63-4.26-7.49-3.66-11.23-9.39a21.51,21.51,0,0,1-1.56-2.87,3.29,3.29,0,0,0-1.93,1.39c-1.43,2.65,4.43,5.95,8.75,15.47a42.42,42.42,0,0,1,3.59,20.15c-.56,7.22-3.18,14.21-4.06,14.06-.53-.09-.79-2.81-.43-4.88,1.6-9.19-2.38-22-4.1-27.54C148,12.63,145.69,5.19,138.91,1.82c-3.74-1.85-9.42-2.76-12.21-.4,1.43,1.57,3.07,3.39,4.88,5.42C138.06,14.11,141.3,17.75,142.06,19.19Z"/><path class="cls-5" d="M192.51,64.62c-2.51.25-2,6.46-5.69,14.1-8.32,17.11-27.92,20.84-29.95,21.19-1.75.3-5.9,1-6.3,0-.93-2.4,20.7-7.24,32-23.55,10.47-15.08,10.82-38.12,2.18-44a10.54,10.54,0,0,0-6.4-1.72c.62,2.48,1.39,5.33,2.39,8.45,2.71,8.5,4.43,10.88,4.52,15.73.14,7.6-3.87,13.43-5.42,15.68-4.63,6.73-7.9,5.93-21.16,16.55-8.68,7-12,11.09-13.07,12.42a60.09,60.09,0,0,0-7.91,13.45c-3.15,6.78-15.59,14.28-55.25,18.32l-.27.23c36.78-1.59,62.71-12,78.14-19.9,11.7-6,40.29-20.75,38.72-36.39C198.56,70.26,195,64.37,192.51,64.62Z"/><path class="cls-5" d="M112.8,48.6c1.31,8.11-1.45,8.73.27,15.8,2,8.07,6,9.26,5.32,14.38-.62,4.42-3.85,5-7.14,11.29A33.71,33.71,0,0,0,107.8,103c-.75,5.53-5.94,14-24.35,27.47l.65-.23a74.33,74.33,0,0,0,19.27-15.5c4.52-5.18,4.74-7,13.15-17,8.62-10.21,11.26-11.69,13.67-17.59,1.07-2.65,4.72-11.63,1.58-20.76-2.66-7.75-7.8-8.63-8.44-16.13-.4-4.77,1.56-5.76.82-11.51-.63-4.87-2.29-6.1-3.6-11.2a32.85,32.85,0,0,1-1-7.57c-1.43,1-2.42,3.7-2.87,4.93-2.36,6.54-1.57,13.31,2.58,27.42,3.58,12.13,6.65,19.52,5.72,20-.69.33-3.12-3.49-3.39-3.91-3.68-5.79-4.75-11.41-5.43-16-2.13-14.24-.68-19.41-4-21.11a5.44,5.44,0,0,0-4.07-.16,23.14,23.14,0,0,0-.67,7.41C108,38.56,111.42,40,112.8,48.6Z"/><path class="cls-22" d="M128.46,168.83a77.47,77.47,0,0,1-2.64-36.21A60,60,0,0,1,137.11,106c1.61-2.07,8.22-10.61,12-9.09,1.59.63,2.39,2.9,2.48,4.56.32,5.37-6.49,7.83-5.66,12.37.26,1.43,1.24,2.89,2.19,2.92.43,0,1.85-.25,4.05-7.68,3-10,1.18-12.56,3.74-19.1,1-2.67,4.09-10.48,9.4-10.93,1.67-.14,4.1.4,5.16,2.12,1.79,2.89-1.63,7-5.58,15.29s-6.77,17.45-5.88,17.89c.7.35,3.95-4.55,6.06-8.32,3.8-6.75,3.44-9,6-13.6,4.25-7.78,12.22-14.23,14.89-12.73s0,10.55-.17,11.19c-1.33,4.54-3.06,6.3-9.22,16-5.48,8.65-6,10.22-5.54,10.63.6.54,3-1,4.45-2.28,4-3.34,5.13-7.22,6.67-10.58,3.2-7,9.82-15.59,14.18-14.66,2.34.5,3.72,3.69,4.08,5.78.39,2.28-.11,5.16-4,10.21-7.45,9.79-13.94,10-18.58,18.86-1.4,2.68-2.72,6.32-1.9,6.87s4.46-2.88,7.87-6.3c7.11-7.15,8.71-10.43,10.46-10,2.26.57,3.26,6.92,2.43,12.33-.62,4.11-3.06,12.57-17.91,23.07C161.51,163.05,142.53,167.36,128.46,168.83Z"/><path class="cls-5" d="M182.72,111c-7.84,8.06-7.05,10.87-14.27,19.53-6.16,7.37-9.89,9.12-18.29,16.24a175.13,175.13,0,0,0-21.5,21.84c24.49-4.32,32.39-11.18,34.56-17.23.87-2.44,2.5-9.46,8.05-11.94,3.26-1.46,4.5.15,8.84-1.32,7.3-2.48,10.65-9.41,11.07-10.32,1.55-3.34,1.09-5,1.82-7.58a13.43,13.43,0,0,1,2.1-4.29,1.74,1.74,0,0,0-.83-.52c-1.75-.45-3.35,2.83-10.46,10-3.41,3.42-6.94,6.94-7.87,6.3s.5-4.19,1.9-6.87C182.48,116,189,115.76,196.42,106c3.85-5,4.35-7.93,4-10.21-.33-1.91-1.51-4.73-3.5-5.59a24.89,24.89,0,0,1-2.4,8.16C191.8,103.73,188.59,105,182.72,111Z"/><path class="cls-5" d="M159.17,94.17c-1.87,4.92-1.13,6.44-2.45,12.94-1.7,8.33-2.55,12.49-5.8,16-4.59,5-9.42,3.91-12.24,9.55-1.22,2.45-.57,3.17-2.09,6.38-2.28,4.81-5.55,7-7,8.57-2.59,2.7-4.39,8.23-1.15,20.65,2.47-18.86,9-26.82,15.13-30.41,5.56-3.24,9.18-1.94,14.72-6.78,7.37-6.45,4.7-12,13-26,5-8.51,7.42-9.05,10.81-16.81a48.54,48.54,0,0,0,2.89-8.79c-3.29.07-10.08,6-13.89,12.94-2.52,4.62-2.16,6.85-6,13.6-2.11,3.77-5.36,8.67-6.06,8.32-.89-.44,1.87-9.47,5.88-17.89s7.37-12.4,5.58-15.29a5.26,5.26,0,0,0-4.1-2.12,46.09,46.09,0,0,1-2.2,5.61C162.05,89.17,160.78,89.93,159.17,94.17Z"/><path class="cls-23" d="M162.58,18,53.05,14.83,37.7,14.38a8.11,8.11,0,0,0-8.46,8.06V189.21a7.58,7.58,0,0,0,8.46,7.62L138,187.21l24.62-2.35c3.87-.38,7-4.15,7-8.3V25.71A7.52,7.52,0,0,0,162.58,18Z"/><path class="cls-24" d="M171.57,176.48c0,4.14-3,7.8-6.9,8.17L40.36,196.58A7.42,7.42,0,0,1,32,189.11V22.51a8,8,0,0,1,8.38-8l124.33,3.59c3.87.12,6.88,3.57,6.88,7.71Z"/><path class="cls-25" d="M37.71,19.88v163a7.58,7.58,0,0,0,8.3,7.73l113.85-10.49c3.9-.36,6.73-4.21,6.73-8.37V23.13Z"/><path class="cls-26" d="M171.57,25.76v10.5L32,34.12V22.51a8,8,0,0,1,8.3-8l124.36,3.59A7.47,7.47,0,0,1,171.57,25.76Z"/><path class="cls-1" d="M48.1,24.51a4,4,0,0,1-4.16,4,4.26,4.26,0,0,1-4.18-4.21,4,4,0,0,1,4.18-4A4.26,4.26,0,0,1,48.1,24.51Z"/><path class="cls-1" d="M60.52,24.78a4,4,0,0,1-4.09,4,4.19,4.19,0,0,1-4.11-4.17,4,4,0,0,1,4.11-4A4.19,4.19,0,0,1,60.52,24.78Z"/><path class="cls-1" d="M72.72,25.05a3.94,3.94,0,0,1-4,4,4.15,4.15,0,0,1-4-4.14,3.93,3.93,0,0,1,4-3.95A4.16,4.16,0,0,1,72.72,25.05Z"/><g class="cls-27"><path class="cls-1" d="M140.19,187l-99.88,9.59A7.49,7.49,0,0,1,32,189V22.51a8,8,0,0,1,8.3-8l15.27.44c-.39,1.81-.75,3.65-1,5.51,0,.24-.09.47-.12.71-.34,2.11-.62,4.26-.82,6.43s-.35,4.66-.39,7c-.21,11.7,1.9,23.73,8,34.91C75.64,96,100.94,96.61,120.48,120.38c9.31,11.31,18.72,29.62,19.64,61.35C140.17,183.43,140.19,185,140.19,187Z"/></g><g class="cls-28"><path class="cls-29" d="M157.78,46.17,52.22,45.35a8.4,8.4,0,0,0-3.88.91,8.28,8.28,0,0,0-4.54,7.38V77.92a8.21,8.21,0,0,0,8.42,8.18l86.51-1.76L157.78,84a7.61,7.61,0,0,0,7.16-7.8V53.89A7.49,7.49,0,0,0,157.78,46.17Z"/><path class="cls-30" d="M157.78,140.28,52.22,146.87a8.76,8.76,0,0,0-3.88,1.18,9,9,0,0,0-4.54,7.69V180a7.55,7.55,0,0,0,8.42,7.59l86.51-7.83,19.05-1.72a8.29,8.29,0,0,0,7.16-8.31V147.49C164.94,143.27,161.74,140,157.78,140.28Z"/><path class="cls-31" d="M157.78,93.09,52.22,96a8.69,8.69,0,0,0-8.42,8.58v24.29a7.86,7.86,0,0,0,8.42,7.88l86.51-4.79,19.05-1a7.94,7.94,0,0,0,7.16-8.05V100.55A7.18,7.18,0,0,0,157.78,93.09Z"/></g><path class="cls-32" d="M169.16,49.64V71.83a7.53,7.53,0,0,1-7.11,7.75L57.18,81.38a8.19,8.19,0,0,1-8.36-8.18V49a8.24,8.24,0,0,1,8.36-8.23l104.87,1.15A7.48,7.48,0,0,1,169.16,49.64Z"/><path class="cls-1" d="M167.58,49.53a6.45,6.45,0,0,0-6.13-6.7L57,41.75a7.17,7.17,0,0,0-7.27,7.15V72.67A7.15,7.15,0,0,0,57,79.79l104.45-1.68a6.51,6.51,0,0,0,6.15-6.74Z"/><path class="cls-33" d="M93.82,56l2.07,4,4.59.57a.58.58,0,0,1,.33,1L97.5,64.8l.78,4.4a.61.61,0,0,1-.87.65l-4.14-2L89.09,70.1a.6.6,0,0,1-.9-.6L89,65l-3.42-3.11a.6.6,0,0,1,.35-1l4.71-.73,2.09-4.08A.63.63,0,0,1,93.82,56Z"/><path class="cls-34" d="M111,55.86l2,3.91,4.37.56a.57.57,0,0,1,.31,1l-3.15,3.11.75,4.3a.59.59,0,0,1-.84.62L110.5,67.4l-4,2.17a.57.57,0,0,1-.86-.58l.77-4.39-3.26-3a.58.58,0,0,1,.33-1l4.49-.72,2-4A.58.58,0,0,1,111,55.86Z"/><path class="cls-35" d="M127.4,55.69l1.88,3.82,4.16.55a.55.55,0,0,1,.3.94l-3,3,.71,4.2a.57.57,0,0,1-.8.61L126.9,67l-3.79,2.11a.55.55,0,0,1-.82-.57l.73-4.28-3.1-3a.57.57,0,0,1,.32-1l4.27-.69,1.89-3.89A.55.55,0,0,1,127.4,55.69Z"/><path class="cls-32" d="M143,55.53l1.79,3.73,4,.54a.54.54,0,0,1,.29.92l-2.87,3,.68,4.1a.54.54,0,0,1-.76.59l-3.58-1.85-3.61,2.07a.53.53,0,0,1-.78-.56l.69-4.18-3-2.9a.56.56,0,0,1,.3-1l4.07-.67,1.81-3.8A.52.52,0,0,1,143,55.53Z"/><path class="cls-32" d="M157.93,55.37,159.64,59l3.79.52a.53.53,0,0,1,.27.9L161,63.35l.65,4a.52.52,0,0,1-.73.58l-3.42-1.81-3.45,2a.51.51,0,0,1-.75-.54l.67-4.09-2.82-2.83a.55.55,0,0,1,.28-.93l3.89-.66L157,55.38A.5.5,0,0,1,157.93,55.37Z"/><path class="cls-36" d="M140.91,51a1.53,1.53,0,0,1-1.5,1.51l-51.08-.15a1.54,1.54,0,0,1-1.51-1.58V50a1.5,1.5,0,0,1,1.48-1.57l51.14.3a1.5,1.5,0,0,1,1.47,1.52Z"/><path class="cls-37" d="M68.6,74.21A13.26,13.26,0,1,1,81.7,60.92,13.19,13.19,0,0,1,68.6,74.21Z"/><path class="cls-1" d="M80.65,60.92A12.15,12.15,0,1,1,68.6,48.77,12.22,12.22,0,0,1,80.65,60.92Z"/><g class="cls-38"><path class="cls-39" d="M64.2,72.34c-5.17-.77-6.32-1.34-6.85-2.4-.77-1.53-.21-4,1.11-5.57C59.61,63,61.05,62.74,61,61.81c0-.77-1-.86-1.75-2.3A3.12,3.12,0,0,1,60.53,55c1.39-.76,2.18.11,3.23-.57,1.31-.85.72-2.65,1.95-3.17a3,3,0,0,1,2.33.39c1,.52.89,1,1.72,1.38,1,.38,1.45-.22,2.59,0a4.07,4.07,0,0,1,2.18,1.51c1.25,1.48.63,2.36,1.55,4.18,1.29,2.56,3.24,2.26,3.59,4.31.18,1.07-.28,1.56.07,3.2.24,1.11.55,1.31.6,2,.15,1.88-2.08,3.55-2.49,3.84C75.19,74,71.51,73.44,64.2,72.34Z"/><path class="cls-40" d="M72.52,67.32c-3.44-.23-5.77,2.91-6.7,2.14s1.6-3.23.76-6.12-4.1-3.43-3.84-5C63,56.48,67.4,56,67.3,54.67c-.06-.79-1.6-1-1.91-2.22a1.85,1.85,0,0,1,0-1c-.85.66-.46,2.22-1.66,3s-1.84-.19-3.23.57a3.12,3.12,0,0,0-1.27,4.48C60,61,61,61,61,61.81c0,.93-1.4,1.2-2.55,2.56-1.32,1.54-1.88,4-1.11,5.57.53,1.06,1.68,1.63,6.85,2.4,7.31,1.1,11,1.61,13.65-.26a6.43,6.43,0,0,0,2.5-3,3,3,0,0,1-1.51.78C76.63,70.24,75.61,67.51,72.52,67.32Z"/><path class="cls-41" d="M60,72.88a4.15,4.15,0,0,1-.18-3,5.49,5.49,0,0,1,1.48-2.5c2.07-2,5.23-2,7.61-2s3.68,0,5.12.81c2.58,1.46,4.35,4.87,3.32,6.56-.64,1-1.89.66-9.37,1C63.1,73.89,60.89,74.19,60,72.88Z"/><path class="cls-42" d="M67.67,61.26s.5,3.61-2,4.34a.39.39,0,0,0-.17.66l3.14,2.93a.46.46,0,0,0,.66,0L72.1,66a.39.39,0,0,0-.16-.63,3.35,3.35,0,0,1-2.19-3.94Z"/><path class="cls-43" d="M66.11,59.27s.69,3.55,2.44,3.55,2.3-2.6,2.5-3.81l.07-.61a1.38,1.38,0,0,1-.73,0,1.13,1.13,0,0,1-.74-.55c-.2-.44.17-.8,0-1.19a.86.86,0,0,0-.55-.38,1.17,1.17,0,0,1,.23,1c-.09.25-.35.49-.92.63C66.73,58.31,66.09,58.47,66.11,59.27Z"/><path class="cls-44" d="M66.54,59.69s-.91-.77-1-.3c-.16,1,.61,1.52,1,1.23S66.54,59.69,66.54,59.69Z"/><path class="cls-45" d="M70.53,59.68s.9-.77,1-.3c.16,1-.61,1.52-1,1.23S70.53,59.68,70.53,59.68Z"/></g><path class="cls-46" d="M143.12,79.91,57.18,81.38a8.19,8.19,0,0,1-8.36-8.18V49a8.24,8.24,0,0,1,4.51-7.34c.28.2.57.39.84.6l.18.13a18.49,18.49,0,0,1,6.27,7.92c.14.35.27.7.39,1.06v0c.64,2,1.32,3.83,2.08,5.57,2.35,5.41,5.4,9.65,9.91,12.19a18.63,18.63,0,0,0,3,1.36c.38.14.78.26,1.19.38,4.38,1.26,9.85,1.3,16.8-.13l1.53-.31.85-.17c3.19-.65,6.31-1.25,9.36-1.7l.64-.09c.92-.13,1.83-.24,2.74-.34.68-.07,1.37-.14,2-.19l.43,0c.72,0,1.44-.09,2.16-.11.45,0,.91,0,1.36,0,1.15,0,2.29,0,3.43.11a36.75,36.75,0,0,1,3.78.44c.52.09,1,.19,1.55.3,6.2,1.33,12.24,4.39,18.25,10.26l1,1Z"/><path class="cls-32" d="M169.16,143v22.19c0,4.21-3.18,7.91-7.11,8.26L57.18,182.55A7.53,7.53,0,0,1,48.82,175v-24.2a8.94,8.94,0,0,1,4.51-7.65,8.8,8.8,0,0,1,3.85-1.17l104.87-6.2C166,135.51,169.16,138.74,169.16,143Z"/><path class="cls-1" d="M167.58,142.85c0-3.67-2.71-6.48-6.13-6.27L57,142.82a7.81,7.81,0,0,0-7.27,7.66v23.77a6.57,6.57,0,0,0,7.3,6.6l104.45-9a7.1,7.1,0,0,0,6.15-7.17Z"/><path class="cls-47" d="M93.82,154.63l2.07,3.87,4.59.25a.55.55,0,0,1,.33,1l-3.31,3.43.78,4.35a.65.65,0,0,1-.87.7l-4.14-1.69L89.09,169a.57.57,0,0,1-.9-.54l.8-4.56-3.42-2.87a.61.61,0,0,1,.35-1L90.63,159l2.09-4.23A.63.63,0,0,1,93.82,154.63Z"/><path class="cls-48" d="M111,153.25l2,3.78,4.37.25a.54.54,0,0,1,.31.94l-3.15,3.34.75,4.24a.64.64,0,0,1-.84.69l-3.93-1.66-4,2.45a.54.54,0,0,1-.86-.52l.77-4.45-3.26-2.81a.6.6,0,0,1,.33-1l4.49-1,2-4.13A.59.59,0,0,1,111,153.25Z"/><path class="cls-49" d="M127.4,151.93l1.88,3.69,4.16.26a.53.53,0,0,1,.3.92l-3,3.25.71,4.14a.6.6,0,0,1-.8.67l-3.75-1.63-3.79,2.39a.52.52,0,0,1-.82-.52l.73-4.33-3.1-2.75a.59.59,0,0,1,.32-1l4.27-1,1.89-4A.56.56,0,0,1,127.4,151.93Z"/><path class="cls-50" d="M143,150.67l1.79,3.61,4,.26a.52.52,0,0,1,.29.9l-2.87,3.17.68,4a.58.58,0,0,1-.76.65l-3.58-1.6L138.93,164a.49.49,0,0,1-.78-.5l.69-4.23-3-2.69a.58.58,0,0,1,.3-1l4.07-1,1.81-3.93A.53.53,0,0,1,143,150.67Z"/><path class="cls-32" d="M157.93,149.47l1.71,3.54,3.79.25a.51.51,0,0,1,.27.88l-2.73,3.1.65,4a.56.56,0,0,1-.73.63l-3.42-1.57L154,162.52a.48.48,0,0,1-.75-.49l.67-4.14-2.82-2.63a.57.57,0,0,1,.28-.95l3.89-.93,1.73-3.83A.5.5,0,0,1,157.93,149.47Z"/><path class="cls-51" d="M140.91,146.53a1.66,1.66,0,0,1-1.5,1.61l-51.08,3.45a1.42,1.42,0,0,1-1.51-1.47v-.75a1.64,1.64,0,0,1,1.48-1.68l51.14-3.3a1.39,1.39,0,0,1,1.47,1.42Z"/><path class="cls-52" d="M68.6,174.58A12.14,12.14,0,0,1,55.26,162.3,14.49,14.49,0,0,1,68.6,148.06a12.15,12.15,0,0,1,13.1,12.3A14.5,14.5,0,0,1,68.6,174.58Z"/><path class="cls-1" d="M80.65,160.44A13.33,13.33,0,0,1,68.6,173.51a11.15,11.15,0,0,1-12.25-11.29A13.29,13.29,0,0,1,68.6,149.14,11.16,11.16,0,0,1,80.65,160.44Z"/><g class="cls-53"><path class="cls-54" d="M57.63,174.24c-.9-1.4.37-3.91,1.16-5.07,2.31-3.36,6.53-3.79,10-4.14s6.6-.67,9,1.57c1.53,1.45,2.94,4.23,2,5.84s-3.74.67-10.34,1.19C62.06,174.2,58.74,176,57.63,174.24Z"/><path class="cls-55" d="M71.94,165.33c0,.63-1.52,1.49-3.4,1.64s-3.41-.49-3.41-1.12,1.53-.46,3.41-.61S71.94,164.7,71.94,165.33Z"/><path class="cls-56" d="M67.29,161.31c-.52,0,.68,3.6-1.21,4.25a.22.22,0,0,0,0,.39,6.11,6.11,0,0,0,3,.39,4.18,4.18,0,0,0,2.13-.8.21.21,0,0,0,0-.36c-.58-.25-1.38-1.15-1.14-4Z"/><path class="cls-57" d="M65.71,157a18,18,0,0,0,.93,5c.22.47,1.3.33,2,.22s1.56.06,1.83-.38c1.07-1.77.89-5.94.89-5.94s-.55-1.35-2.81-1.16A3.25,3.25,0,0,0,65.71,157Z"/><path class="cls-58" d="M66.24,158.79a1.9,1.9,0,0,0-.92-.56c-.45,0-.74,1.15-.13,1.86a.89.89,0,0,0,1.32,0Z"/><path class="cls-59" d="M70.86,158.47a2.26,2.26,0,0,1,.92-.69c.45-.11.74,1,.13,1.82a.89.89,0,0,1-1.31.23Z"/><path class="cls-60" d="M65.87,158.78c.06.11.13.2.18.19s-.55-1.89.13-2.59c.35-.37.75-.09,2.19-.25s1.83-.54,2.26-.31.76.89.46,3l.25-.08a2.16,2.16,0,0,1,.15-1.37,1.66,1.66,0,0,0,.27-.83c0-.22-.09-.23-.1-.41,0-.54.58-.73.61-1.26s-.33-.48-.27-.92.33-.45.29-.71-.42-.47-.67-.53-.36,0-.52-.06-.13-.48-.31-.58-1,.68-1.38.5c-.25-.11-.15-.48-.38-.55-.43-.15-1.19,1.12-1.5,1-.14-.07,0-.38-.21-.58a.84.84,0,0,0-1.08.09c-.25.27,0,.55-.3.89s-.51.2-.77.45c-.45.42-.3,1.29-.24,1.6.19,1.08.79,1.25.66,2a1.56,1.56,0,0,0-.06.71A1.37,1.37,0,0,0,65.87,158.78Z"/><g class="cls-61"><path class="cls-62" d="M71.39,156.05c0-.52.35-.8.29-1.17a.86.86,0,0,0-.72-.59c-.69-.08-1.14,1-1.82.91s-.47-.7-1.07-.91c-.95-.35-1.94,1-2.58.67-.19-.1-.38-.35-.39-1.07a2,2,0,0,0-.17,1.52c.19,1.08.79,1.25.66,2a1.56,1.56,0,0,0-.06.71,1.37,1.37,0,0,0,.34.66c.06.11.13.2.18.19s-.55-1.89.13-2.59c.35-.37.75-.09,2.19-.25s1.83-.54,2.26-.31.76.89.46,3l.25-.08a2.16,2.16,0,0,1,.15-1.37c0-.08.1-.18.14-.28a2.44,2.44,0,0,0-.1-.57C71.46,156.24,71.4,156.22,71.39,156.05Z"/></g></g><path class="cls-46" d="M143.12,175.05l-85.94,7.5A7.53,7.53,0,0,1,48.82,175v-24.2a8.94,8.94,0,0,1,4.51-7.65c.28.17.57.35.84.54l.18.12a16.69,16.69,0,0,1,6.27,7.48c.14.33.27.68.39,1v0a56.74,56.74,0,0,0,2.08,5.42c2.35,5.25,5.4,9.27,9.91,11.5a17.28,17.28,0,0,0,3,1.15c.38.11.78.21,1.19.29,4.38,1,9.85.62,16.8-1.3l1.53-.42.85-.23c3.19-.87,6.31-1.69,9.36-2.36l.64-.13c.92-.2,1.83-.38,2.74-.54.68-.12,1.37-.23,2-.33l.43-.06c.72-.1,1.44-.19,2.16-.26.45-.05.91-.09,1.36-.12,1.15-.09,2.29-.14,3.43-.14s2.53.06,3.78.18c.52.05,1,.12,1.55.19,6.2.9,12.24,3.54,18.25,9l1,.89S143.11,175,143.12,175.05Z"/><path class="cls-32" d="M169.16,96.15v22.19a7.88,7.88,0,0,1-7.11,8L57.18,131.81a7.85,7.85,0,0,1-8.36-7.88V99.73a8.56,8.56,0,0,1,4.51-7.49,8.4,8.4,0,0,1,3.85-1l104.87-2.52A7.18,7.18,0,0,1,169.16,96.15Z"/><path class="cls-1" d="M167.58,96a6.2,6.2,0,0,0-6.13-6.49L57,92.1a7.48,7.48,0,0,0-7.27,7.41v23.77a6.86,6.86,0,0,0,7.3,6.86l104.45-5.32a6.8,6.8,0,0,0,6.15-7Z"/><path class="cls-63" d="M93.82,105.18l2.07,3.95,4.59.4a.57.57,0,0,1,.33,1l-3.31,3.31.78,4.38a.63.63,0,0,1-.87.67L93.27,117l-4.18,2.37a.58.58,0,0,1-.9-.57l.8-4.53-3.42-3a.61.61,0,0,1,.35-1l4.71-.9,2.09-4.16A.63.63,0,0,1,93.82,105.18Z"/><path class="cls-64" d="M111,104.4l2,3.85,4.37.41a.55.55,0,0,1,.31,1l-3.15,3.23.75,4.27a.61.61,0,0,1-.84.65L110.5,116l-4,2.31a.56.56,0,0,1-.86-.56l.77-4.41-3.26-2.93a.59.59,0,0,1,.33-1l4.49-.87,2-4.06A.58.58,0,0,1,111,104.4Z"/><path class="cls-65" d="M127.4,103.66l1.88,3.76,4.16.4a.54.54,0,0,1,.3.93l-3,3.15.71,4.17a.59.59,0,0,1-.8.64L126.9,115l-3.79,2.25a.54.54,0,0,1-.82-.54l.73-4.31-3.1-2.86a.58.58,0,0,1,.32-1l4.27-.84,1.89-4A.56.56,0,0,1,127.4,103.66Z"/><path class="cls-66" d="M143,103l1.79,3.67,4,.4a.53.53,0,0,1,.29.91L146.2,111l.68,4.08a.56.56,0,0,1-.76.62L142.54,114l-3.61,2.19a.51.51,0,0,1-.78-.53l.69-4.21-3-2.79a.57.57,0,0,1,.3-1l4.07-.82,1.81-3.86A.52.52,0,0,1,143,103Z"/><path class="cls-67" d="M157.93,102.28l1.71,3.59,3.79.39a.52.52,0,0,1,.27.89l-2.73,3,.65,4a.54.54,0,0,1-.73.61l-3.42-1.69L154,115.19a.5.5,0,0,1-.75-.52l.67-4.11-2.82-2.73a.56.56,0,0,1,.28-.94l3.89-.8,1.73-3.77A.5.5,0,0,1,157.93,102.28Z"/><path class="cls-68" d="M140.91,98.42a1.59,1.59,0,0,1-1.5,1.56l-51.08,1.63a1.47,1.47,0,0,1-1.51-1.52v-.75a1.55,1.55,0,0,1,1.48-1.62l51.14-1.5a1.46,1.46,0,0,1,1.47,1.48Z"/><path class="cls-69" d="M68.6,124.24a12.65,12.65,0,0,1-13.34-12.75A13.86,13.86,0,0,1,68.6,97.73a12.66,12.66,0,0,1,13.1,12.76A13.88,13.88,0,0,1,68.6,124.24Z"/><path class="cls-1" d="M80.65,110.53A12.75,12.75,0,0,1,68.6,123.17a11.62,11.62,0,0,1-12.25-11.72A12.74,12.74,0,0,1,68.6,98.8,11.64,11.64,0,0,1,80.65,110.53Z"/><g class="cls-70"><path class="cls-71" d="M69.35,123.42c-7.57.41-10.24,1.54-11.46,0s-.19-4.19,1.14-5.78c2.11-2.5,5.47-2.76,10-3.07,4.28-.3,6.9-.48,9,1.28s3.15,4.79,2,6.5S76.51,123,69.35,123.42Z"/><path class="cls-72" d="M66.56,114.61l-.89.26a.35.35,0,0,0-.19.51c.6.92,2.2,3.21,3.2,3.44s2.94-2.82,3.58-3.9a.31.31,0,0,0-.18-.47l-.64-.18a4.12,4.12,0,0,0-1.64-.12l-2.41.29A4.7,4.7,0,0,0,66.56,114.61Z"/><path class="cls-73" d="M67.22,111.14s.48,3.49-.19,3.85l1.91,2,1.93-2.55s-.73-.52-.53-3.43Z"/><path class="cls-74" d="M66.09,106.17c-.07.09-1,4.55,2.14,4.89s3.23-2.92,3.19-4.29-1.45-1.84-2.26-1.91A6.3,6.3,0,0,0,66.09,106.17Z"/><path class="cls-75" d="M65.91,108.75s-.16-.71-.69-.24.31,1.63,1,1.56Z"/><path class="cls-76" d="M71.33,108.06a14,14,0,0,0-.35,1.76s.45,0,.77-.58S72.23,107.41,71.33,108.06Z"/><path class="cls-77" d="M72.54,104.79c-.33-.53-1.15-.25-1.39-.76s.28-.87,0-1.24-.73-.28-.82-.28c-.71,0-.87.6-1.37.6s-.64-.84-1.45-1.16a2.21,2.21,0,0,0-2.42.66c-.36.51,0,.87-.53,1.53-.32.46-.62.48-.78.92a1.73,1.73,0,0,0,0,1.09,5,5,0,0,0,1.11,1.7,11.07,11.07,0,0,1,.92,1.42,15.16,15.16,0,0,1,.55,1.73c.17.68.16.82.32,1,.57.74,1.85.62,2.38.57a2.31,2.31,0,0,0,1.77-.69c.21-.3.19-.56.23-1.26a19.26,19.26,0,0,1,.27-2.06,5.49,5.49,0,0,1,.25-.88c.23-.61.46-.72.71-1.34S72.8,105.22,72.54,104.79ZM70,109.56a3.31,3.31,0,0,1-1.15,0c-1,0-1.37.47-1.86.28a1.2,1.2,0,0,1-.77-.79,3.68,3.68,0,0,1,0-1.22c.08-.6.17-1.3.65-1.62.7-.47,1.58.26,2.22-.25a1.19,1.19,0,0,0,.38-.71,2.69,2.69,0,0,1,1.68,1.6,2.77,2.77,0,0,1,0,1.76A2.07,2.07,0,0,1,70,109.56Z"/><path class="cls-78" d="M67.84,110.37a2.54,2.54,0,0,0,1.67-.11c.07,0,.13,0,.07.09a1.55,1.55,0,0,1-1,.36,1.88,1.88,0,0,1-.83-.24C67.71,110.44,67.76,110.35,67.84,110.37Z"/></g><path class="cls-46" d="M143.12,127.33l-85.94,4.48a7.85,7.85,0,0,1-8.36-7.88V99.73a8.56,8.56,0,0,1,4.51-7.49l.84.56.18.13a17.57,17.57,0,0,1,6.27,7.7q.21.51.39,1.05v0c.64,1.94,1.32,3.78,2.08,5.49,2.35,5.33,5.4,9.46,9.91,11.85a18.34,18.34,0,0,0,3,1.25c.38.13.78.24,1.19.34,4.38,1.11,9.85,1,16.8-.71l1.53-.37.85-.2c3.19-.76,6.31-1.47,9.36-2l.64-.11c.92-.16,1.83-.31,2.74-.44l2-.26.43,0c.72-.08,1.44-.14,2.16-.19l1.36-.07c1.15,0,2.29-.06,3.43,0a36.58,36.58,0,0,1,3.78.32c.52.06,1,.15,1.55.24,6.2,1.12,12.24,4,18.25,9.62l1,.93Z"/></g></g></g></svg>